<?xml version="1.0" encoding="UTF-8"?>
<svg xmlns="http://www.w3.org/2000/svg" xmlns:xlink="http://www.w3.org/1999/xlink"
     width="800" height="800" viewBox="0 -400 400 400">
<defs>
</defs>
<rect x="0" y="-400" width="400" height="400" fill="#ffffff" />
<circle cx="359.6934923717348" cy="-389.96028534173666" r="11.858337992055702" fill="none" stroke-width="0.5" stroke="blue" />
<circle cx="69.3238128635873" cy="-511.51357921098963" r="4.35239176442787" fill="none" stroke-width="0.5" stroke="blue" />
<circle cx="486.37213295134904" cy="-322.8784649141395" r="9.550044152876016" fill="none" stroke-width="0.5" stroke="blue" />
<circle cx="265.5557037994617" cy="-364.87310813046656" r="15.001070413692123" fill="none" stroke-width="0.5" stroke="blue" />
<circle cx="208.25396557840367" cy="-20.644513159170476" r="11.771302009011013" fill="none" stroke-width="0.5" stroke="blue" />
<circle cx="-117.93827945166247" cy="-50.54331603075861" r="8.88421963941151" fill="none" stroke-width="0.5" stroke="blue" />
<circle cx="387.58819481397984" cy="-198.43706014595077" r="9.538024509706881" fill="none" stroke-width="0.5" stroke="blue" />
<circle cx="302.87812348066694" cy="-81.6211812719926" r="14.372349457210094" fill="none" stroke-width="0.5" stroke="blue" />
<circle cx="184.86691264294882" cy="-443.70152199261827" r="14.942625322087236" fill="none" stroke-width="0.5" stroke="blue" />
<circle cx="286.095903931509" cy="118.23774262900044" r="9.923286335201285" fill="none" stroke-width="0.5" stroke="blue" />
<circle cx="233.51246436435557" cy="-8.292538066833623" r="11.039459192340866" fill="none" stroke-width="0.5" stroke="blue" />
<circle cx="348.64439952172654" cy="48.707597497622466" r="7.462298192510819" fill="none" stroke-width="0.5" stroke="blue" />
<circle cx="-13.648883243911996" cy="-508.8277122841869" r="12.209789426027967" fill="none" stroke-width="0.5" stroke="blue" />
<circle cx="14.674454992233374" cy="-488.38639810127927" r="7.937567551570289" fill="none" stroke-width="0.5" stroke="blue" />
<circle cx="173.44372107503537" cy="-407.13057188270875" r="15.896825444159624" fill="none" stroke-width="0.5" stroke="blue" />
<circle cx="172.68327483513525" cy="-171.43820732125383" r="12.417064435806168" fill="none" stroke-width="0.5" stroke="blue" />
<circle cx="228.23394113666353" cy="98.1413204477345" r="2.6232613215022185" fill="none" stroke-width="0.5" stroke="blue" />
<circle cx="5.979145948566621" cy="83.70843674179376" r="8.15016572073226" fill="none" stroke-width="0.5" stroke="blue" />
<circle cx="153.47629165396245" cy="-199.87180751983797" r="15.440822814633059" fill="none" stroke-width="0.5" stroke="blue" />
<circle cx="-114.55667633555689" cy="-187.36630906710815" r="13.110001800071204" fill="none" stroke-width="0.5" stroke="blue" />
<circle cx="335.70646021162554" cy="-463.1972626980033" r="7.568481953418799" fill="none" stroke-width="0.5" stroke="blue" />
<circle cx="-89.27070120375393" cy="23.105558081589535" r="9.630332877136205" fill="none" stroke-width="0.5" stroke="blue" />
<circle cx="208.03428670211437" cy="-338.2678435136051" r="12.312269204714484" fill="none" stroke-width="0.5" stroke="blue" />
<circle cx="49.17458723699898" cy="97.94998317258708" r="11.997261363145487" fill="none" stroke-width="0.5" stroke="blue" />
<circle cx="411.6601602821534" cy="-287.9365598549904" r="13.508499600603711" fill="none" stroke-width="0.5" stroke="blue" />
<circle cx="223.30787685600714" cy="54.42539840386357" r="12.942088859538778" fill="none" stroke-width="0.5" stroke="blue" />
<circle cx="201.3619591890846" cy="-196.72080224579486" r="15.05558890109996" fill="none" stroke-width="0.5" stroke="blue" />
<circle cx="448.7575200660122" cy="-339.27292873982424" r="11.65951693719597" fill="none" stroke-width="0.5" stroke="blue" />
<circle cx="-80.88618098178033" cy="-144.51127825550606" r="8.360386329348831" fill="none" stroke-width="0.5" stroke="blue" />
<circle cx="318.92187684985805" cy="-217.67272499592013" r="12.72863709156789" fill="none" stroke-width="0.5" stroke="blue" />
<circle cx="130.42115664189478" cy="58.223780338448286" r="11.096149460761657" fill="none" stroke-width="0.5" stroke="blue" />
<circle cx="51.38829086920301" cy="-176.26628460597274" r="14.085858481321619" fill="none" stroke-width="0.5" stroke="blue" />
<circle cx="373.57371040408157" cy="84.13882390867" r="2.4469466909786837" fill="none" stroke-width="0.5" stroke="blue" />
<circle cx="331.8982043011447" cy="-292.75350770470226" r="12.33339984209093" fill="none" stroke-width="0.5" stroke="blue" />
<circle cx="39.48378240595508" cy="-426.9609794773144" r="10.454107469118208" fill="none" stroke-width="0.5" stroke="blue" />
<circle cx="250.7199911931493" cy="119.38258038879542" r="13.919581463997636" fill="none" stroke-width="0.5" stroke="blue" />
<circle cx="231.9634949068448" cy="-99.15241274460726" r="11.041427307275528" fill="none" stroke-width="0.5" stroke="blue" />
<circle cx="320.6719491030272" cy="45.329655136798884" r="10.772498314985315" fill="none" stroke-width="0.5" stroke="blue" />
<circle cx="210.38303354424812" cy="-415.00752474120617" r="16.34403627176348" fill="none" stroke-width="0.5" stroke="blue" />
<circle cx="243.88016375908973" cy="-148.62560426147576" r="12.393425977905023" fill="none" stroke-width="0.5" stroke="blue" />
<circle cx="-2.2651068938564647" cy="-388.3615107701181" r="12.445261590521396" fill="none" stroke-width="0.5" stroke="blue" />
<circle cx="89.11808950682473" cy="-483.6837456558855" r="6.5141127006012605" fill="none" stroke-width="0.5" stroke="blue" />
<circle cx="-7.233006087310846" cy="-444.6572627258029" r="7.870667866157567" fill="none" stroke-width="0.5" stroke="blue" />
<circle cx="40.0580981616794" cy="-239.89428706321516" r="13.07254604883692" fill="none" stroke-width="0.5" stroke="blue" />
<circle cx="-48.18798066362267" cy="-11.627722494603693" r="6.243714616156488" fill="none" stroke-width="0.5" stroke="blue" />
<circle cx="357.5231731280726" cy="-280.3075178038812" r="12.136080423579504" fill="none" stroke-width="0.5" stroke="blue" />
<circle cx="-52.13336670754406" cy="-29.967240545370206" r="8.44159692578466" fill="none" stroke-width="0.5" stroke="blue" />
<circle cx="436.23401321911166" cy="-307.1925049521921" r="14.04883618400913" fill="none" stroke-width="0.5" stroke="blue" />
<circle cx="171.45633914964097" cy="-98.37569211223767" r="13.256831510421213" fill="none" stroke-width="0.5" stroke="blue" />
<circle cx="248.40720656982356" cy="-184.7776113598789" r="13.98201911520883" fill="none" stroke-width="0.5" stroke="blue" />
<circle cx="193.5103697931397" cy="74.8069019289574" r="11.757533505426881" fill="none" stroke-width="0.5" stroke="blue" />
<circle cx="-43.5838322917634" cy="-427.0106214618748" r="5.059085717798141" fill="none" stroke-width="0.5" stroke="blue" />
<circle cx="241.83541480029643" cy="-491.0465952672761" r="7.955458521005067" fill="none" stroke-width="0.5" stroke="blue" />
<circle cx="342.7426913466659" cy="-182.6543703590399" r="11.19455121958119" fill="none" stroke-width="0.5" stroke="blue" />
<circle cx="-32.58422755613715" cy="-348.282634324681" r="9.016857009231803" fill="none" stroke-width="0.5" stroke="blue" />
<circle cx="-66.54235947925432" cy="-440.1217476099458" r="5.578087160659275" fill="none" stroke-width="0.5" stroke="blue" />
<circle cx="181.82375104819167" cy="-233.17890643301737" r="16.68968551955023" fill="none" stroke-width="0.5" stroke="blue" />
<circle cx="-59.850670345875855" cy="-89.93008009925796" r="13.526899953630998" fill="none" stroke-width="0.5" stroke="blue" />
<circle cx="34.99359198846817" cy="-14.232826415226773" r="11.507725356450251" fill="none" stroke-width="0.5" stroke="blue" />
<circle cx="368.4792633455935" cy="-334.6617796904964" r="13.149439122705612" fill="none" stroke-width="0.5" stroke="blue" />
<circle cx="124.96202982338951" cy="-473.2834471417309" r="9.013466491528963" fill="none" stroke-width="0.5" stroke="blue" />
<circle cx="-103.92942996784109" cy="-319.2806797463187" r="9.906175002292466" fill="none" stroke-width="0.5" stroke="blue" />
<circle cx="130.5745559913865" cy="-279.18007111998156" r="14.537353127599824" fill="none" stroke-width="0.5" stroke="blue" />
<circle cx="-53.155347080963324" cy="106.52751271036647" r="1.9616456995046496" fill="none" stroke-width="0.5" stroke="blue" />
<circle cx="187.79097363031246" cy="-510.9053860740638" r="2.1978813829075388" fill="none" stroke-width="0.5" stroke="blue" />
<circle cx="453.8148989442579" cy="36.67948573789717" r="6.312227584427214" fill="none" stroke-width="0.5" stroke="blue" />
<circle cx="134.5214954660603" cy="122.94044179545793" r="14.721256095565707" fill="none" stroke-width="0.5" stroke="blue" />
<circle cx="-94.95748358246931" cy="-400.7413440739364" r="3.752237437255361" fill="none" stroke-width="0.5" stroke="blue" />
<circle cx="89.25370985661148" cy="-130.1590544092751" r="12.102860001688569" fill="none" stroke-width="0.5" stroke="blue" />
<circle cx="414.43515144042857" cy="-256.06006523624694" r="9.309010734332226" fill="none" stroke-width="0.5" stroke="blue" />
<circle cx="328.94116408357803" cy="81.16585689588355" r="9.742211148539717" fill="none" stroke-width="0.5" stroke="blue" />
<circle cx="18.91059968066431" cy="-437.75170568947175" r="9.006136541275437" fill="none" stroke-width="0.5" stroke="blue" />
<circle cx="-121.10988751701069" cy="-371.8835093549267" r="10.90081471513681" fill="none" stroke-width="0.5" stroke="blue" />
<circle cx="444.92637186368904" cy="-408.46548589175404" r="6.739580393663734" fill="none" stroke-width="0.5" stroke="blue" />
<circle cx="433.6256227173651" cy="-370.81999406624584" r="13.195122907719389" fill="none" stroke-width="0.5" stroke="blue" />
<circle cx="332.51029562287283" cy="-147.70191853921767" r="10.721273285100674" fill="none" stroke-width="0.5" stroke="blue" />
<circle cx="505.7461779490778" cy="-405.9341494335633" r="2.350693737886414" fill="none" stroke-width="0.5" stroke="blue" />
<circle cx="-69.61590640125702" cy="-424.3229288132419" r="1.66487466766656" fill="none" stroke-width="0.5" stroke="blue" />
<circle cx="-101.92296776567638" cy="-134.63532904493763" r="4.53143447459384" fill="none" stroke-width="0.5" stroke="blue" />
<circle cx="92.64073101787031" cy="-268.6600019832503" r="12.441099638941502" fill="none" stroke-width="0.5" stroke="blue" />
<circle cx="-87.81215338490827" cy="-48.42070166451715" r="8.678297796321079" fill="none" stroke-width="0.5" stroke="blue" />
<circle cx="466.2787890887033" cy="-316.04879339792717" r="9.55004415287601" fill="none" stroke-width="0.5" stroke="blue" />
<circle cx="386.3154526800443" cy="-243.04973996466828" r="9.466890210363012" fill="none" stroke-width="0.5" stroke="blue" />
<circle cx="-64.7424975708266" cy="43.70829820404661" r="2.799179473020427" fill="none" stroke-width="0.5" stroke="blue" />
<circle cx="221.1967032934349" cy="-169.777441466881" r="12.30695828394793" fill="none" stroke-width="0.5" stroke="blue" />
<circle cx="34.41971157029341" cy="-134.7537637838119" r="14.43591236594765" fill="none" stroke-width="0.5" stroke="blue" />
<circle cx="515.6372851065104" cy="23.011096062803013" r="8.859820165702395" fill="none" stroke-width="0.5" stroke="blue" />
<circle cx="27.735350293922682" cy="-203.44418940643686" r="15.739787160209938" fill="none" stroke-width="0.5" stroke="blue" />
<circle cx="375.0058547816048" cy="-368.513789145916" r="11.858337992055683" fill="none" stroke-width="0.5" stroke="blue" />
<circle cx="192.3794212885164" cy="8.635760771558113" r="11.633905726222183" fill="none" stroke-width="0.5" stroke="blue" />
<circle cx="80.39924155831424" cy="-97.90208569493598" r="12.473934056580896" fill="none" stroke-width="0.5" stroke="blue" />
<circle cx="342.61943640029693" cy="-359.33384235901076" r="13.884212646131708" fill="none" stroke-width="0.5" stroke="blue" />
<circle cx="200.17321907418707" cy="-272.63651996229044" r="15.052784586808821" fill="none" stroke-width="0.5" stroke="blue" />
<circle cx="288.40362019557074" cy="-332.52222073569067" r="14.332730809298747" fill="none" stroke-width="0.5" stroke="blue" />
<circle cx="113.77325202258639" cy="-392.63603794060816" r="12.705507000924712" fill="none" stroke-width="0.5" stroke="blue" />
<circle cx="444.1073586615854" cy="-216.88720691017576" r="10.48796069923625" fill="none" stroke-width="0.5" stroke="blue" />
<circle cx="468.83833416102243" cy="38.699516019234665" r="6.821384458458021" fill="none" stroke-width="0.5" stroke="blue" />
<circle cx="367.78391279294016" cy="-472.10594363076336" r="10.965296845050368" fill="none" stroke-width="0.5" stroke="blue" />
<circle cx="-70.80597911976695" cy="-231.9619556084433" r="12.054605150037652" fill="none" stroke-width="0.5" stroke="blue" />
<circle cx="-73.39872831905834" cy="-338.3851778711093" r="10.511595266235787" fill="none" stroke-width="0.5" stroke="blue" />
<circle cx="30.511206674165024" cy="-336.0982338649247" r="15.38534168006014" fill="none" stroke-width="0.5" stroke="blue" />
<circle cx="468.6644632262572" cy="-208.3776114267629" r="11.695365812065846" fill="none" stroke-width="0.5" stroke="blue" />
<circle cx="305.59144826929963" cy="-364.99184117367554" r="14.777769176009706" fill="none" stroke-width="0.5" stroke="blue" />
<circle cx="27.355594840665393" cy="-515.0175058476565" r="13.273300627578099" fill="none" stroke-width="0.5" stroke="blue" />
<circle cx="526.4756903575617" cy="-83.37335565363762" r="5.195751437718281" fill="none" stroke-width="0.5" stroke="blue" />
<circle cx="285.9055532481798" cy="-391.2767693158033" r="11.165076114580213" fill="none" stroke-width="0.5" stroke="blue" />
<circle cx="-53.20495274954724" cy="33.48588244755862" r="6.936611326239108" fill="none" stroke-width="0.5" stroke="blue" />
<circle cx="220.67801707915956" cy="-53.3756964670987" r="8.649361884635981" fill="none" stroke-width="0.5" stroke="blue" />
<circle cx="306.14949447998055" cy="-46.12860438097918" r="13.29406626625541" fill="none" stroke-width="0.5" stroke="blue" />
<circle cx="231.0584128748209" cy="-33.459412020463105" r="10.106593299146905" fill="none" stroke-width="0.5" stroke="blue" />
<circle cx="124.03831640453733" cy="-73.31277747873148" r="8.837643207731382" fill="none" stroke-width="0.5" stroke="blue" />
<circle cx="118.44158002203646" cy="-209.39242649566376" r="14.103321709881158" fill="none" stroke-width="0.5" stroke="blue" />
<circle cx="302.1620468945174" cy="75.47422572830607" r="8.160321202547559" fill="none" stroke-width="0.5" stroke="blue" />
<circle cx="315.7469657929942" cy="-439.0500367951407" r="13.627593753585758" fill="none" stroke-width="0.5" stroke="blue" />
<circle cx="-33.03687696098842" cy="74.4561972880419" r="9.297647106439943" fill="none" stroke-width="0.5" stroke="blue" />
<circle cx="-75.56018407823974" cy="-187.71470840518924" r="13.129757745453997" fill="none" stroke-width="0.5" stroke="blue" />
<circle cx="-13.097653528297576" cy="69.04118207841903" r="2.861990768236849" fill="none" stroke-width="0.5" stroke="blue" />
<circle cx="257.2969785823687" cy="-117.64492854598534" r="12.282064525314945" fill="none" stroke-width="0.5" stroke="blue" />
<circle cx="183.01341471285326" cy="-509.8904213581454" r="2.1978813829075414" fill="none" stroke-width="0.5" stroke="blue" />
<circle cx="512.2120719818389" cy="1.523386276151948" r="9.79154664784959" fill="none" stroke-width="0.5" stroke="blue" />
<circle cx="-128.9862753368062" cy="-66.9053573856343" r="8.884219639411517" fill="none" stroke-width="0.5" stroke="blue" />
<circle cx="-23.02328289330704" cy="47.81504767207397" r="10.452511870115723" fill="none" stroke-width="0.5" stroke="blue" />
<circle cx="406.45651457725245" cy="-236.97393104133022" r="8.895218078011272" fill="none" stroke-width="0.5" stroke="blue" />
<circle cx="402.3294222385706" cy="-320.7159110761613" r="12.271544023676043" fill="none" stroke-width="0.5" stroke="blue" />
<circle cx="376.63114849472674" cy="88.63551281599251" r="2.4469466909786655" fill="none" stroke-width="0.5" stroke="blue" />
<circle cx="151.15211244588386" cy="-438.6248202217489" r="10.544219684377097" fill="none" stroke-width="0.5" stroke="blue" />
<circle cx="-91.32809712964647" cy="-271.20390705435534" r="6.20532281257542" fill="none" stroke-width="0.5" stroke="blue" />
<circle cx="61.65168365656619" cy="-215.31826982670657" r="14.559627243367972" fill="none" stroke-width="0.5" stroke="blue" />
<circle cx="103.15060060162837" cy="-487.23868472182346" r="6.514112700601261" fill="none" stroke-width="0.5" stroke="blue" />
<circle cx="282.93740219672554" cy="-427.292550763406" r="14.873930661347208" fill="none" stroke-width="0.5" stroke="blue" />
<circle cx="-48.04849347655106" cy="-476.44531405709165" r="7.1329375193277" fill="none" stroke-width="0.5" stroke="blue" />
<circle cx="-26.26681696016986" cy="-11.290746910373299" r="9.8656891071143" fill="none" stroke-width="0.5" stroke="blue" />
<circle cx="278.31632025162156" cy="-206.89935879583325" r="13.32013158730755" fill="none" stroke-width="0.5" stroke="blue" />
<circle cx="536.8278651105975" cy="-94.90099269430333" r="6.972153355771159" fill="none" stroke-width="0.5" stroke="blue" />
<circle cx="-54.26699748254673" cy="-318.65034321778785" r="12.36875425327548" fill="none" stroke-width="0.5" stroke="blue" />
<circle cx="180.10610951044544" cy="-63.2645108391104" r="9.310885699972268" fill="none" stroke-width="0.5" stroke="blue" />
<circle cx="386.9534007375846" cy="-270.8863496027986" r="12.529763457808288" fill="none" stroke-width="0.5" stroke="blue" />
<circle cx="294.2507566238909" cy="-469.89615042510275" r="15.272387781553702" fill="none" stroke-width="0.5" stroke="blue" />
<circle cx="262.88886796598996" cy="3.041236319767069" r="13.232856011678688" fill="none" stroke-width="0.5" stroke="blue" />
<circle cx="284.19708340011283" cy="55.76870326717511" r="11.999463512438307" fill="none" stroke-width="0.5" stroke="blue" />
<circle cx="138.57119832070697" cy="-59.660626983825246" r="8.972799934234125" fill="none" stroke-width="0.5" stroke="blue" />
<circle cx="-84.19203858819036" cy="44.44151487383251" r="6.791567164189853" fill="none" stroke-width="0.5" stroke="blue" />
<circle cx="186.62416803678852" cy="-37.42860554614769" r="9.40113631941089" fill="none" stroke-width="0.5" stroke="blue" />
<circle cx="198.8865104737718" cy="-374.6927618467375" r="16.900220067016487" fill="none" stroke-width="0.5" stroke="blue" />
<circle cx="-106.26453182243117" cy="-143.72118557783216" r="4.531434474593847" fill="none" stroke-width="0.5" stroke="blue" />
<circle cx="477.96732751298737" cy="-468.814849874596" r="14.785429392907028" fill="none" stroke-width="0.5" stroke="blue" />
<circle cx="-106.07487561825617" cy="-32.26486804953248" r="6.708534918835235" fill="none" stroke-width="0.5" stroke="blue" />
<circle cx="-47.592761707874075" cy="8.868167992477721" r="8.76146480677807" fill="none" stroke-width="0.5" stroke="blue" />
<circle cx="-91.42983350294031" cy="-29.477953388444227" r="6.50659127665033" fill="none" stroke-width="0.5" stroke="blue" />
<circle cx="-36.164972032818326" cy="-43.31408321836704" r="9.365275605110162" fill="none" stroke-width="0.5" stroke="blue" />
<circle cx="516.1181939865629" cy="-202.6895169292428" r="8.591520207056298" fill="none" stroke-width="0.5" stroke="blue" />
<circle cx="296.8189684991696" cy="-263.29967926662215" r="11.32041112775096" fill="none" stroke-width="0.5" stroke="blue" />
<circle cx="32.17524802665305" cy="-452.73819162027064" r="8.373022899731977" fill="none" stroke-width="0.5" stroke="blue" />
<circle cx="491.89510501731047" cy="-293.5369960388239" r="13.43553369915044" fill="none" stroke-width="0.5" stroke="blue" />
<circle cx="513.9441200007742" cy="-239.56692242458652" r="12.283924857838672" fill="none" stroke-width="0.5" stroke="blue" />
<circle cx="255.44624263568573" cy="-332.76113811692534" r="12.931639326911947" fill="none" stroke-width="0.5" stroke="blue" />
<circle cx="-92.87809244695157" cy="-164.23277171457883" r="5.071755710258313" fill="none" stroke-width="0.5" stroke="blue" />
<circle cx="459.6499617391886" cy="-169.29433868385178" r="11.38962814267064" fill="none" stroke-width="0.5" stroke="blue" />
<circle cx="308.4340652962499" cy="-191.4030524386336" r="11.696426903779624" fill="none" stroke-width="0.5" stroke="blue" />
<circle cx="200.1312427751742" cy="109.67889509153248" r="11.060591392171904" fill="none" stroke-width="0.5" stroke="blue" />
<circle cx="338.22445071198695" cy="61.6078586379475" r="7.462298192510822" fill="none" stroke-width="0.5" stroke="blue" />
<circle cx="-67.16483556548228" cy="-278.19937270656806" r="11.31998008808647" fill="none" stroke-width="0.5" stroke="blue" />
<circle cx="461.5303060438565" cy="-282.97031891271433" r="10.555365429092985" fill="none" stroke-width="0.5" stroke="blue" />
<circle cx="-46.131852259952005" cy="50.165559898748924" r="8.152832578825647" fill="none" stroke-width="0.5" stroke="blue" />
<circle cx="235.0776857626748" cy="-230.79358183070946" r="17.66121946682477" fill="none" stroke-width="0.5" stroke="blue" />
<circle cx="226.05269576434102" cy="-483.0813185574652" r="7.9554585210051005" fill="none" stroke-width="0.5" stroke="blue" />
<circle cx="190.9641639065996" cy="38.932832226390055" r="13.648548903445496" fill="none" stroke-width="0.5" stroke="blue" />
<circle cx="358.60317540750435" cy="27.08609585270225" r="10.71214154505058" fill="none" stroke-width="0.5" stroke="blue" />
<circle cx="426.1791679649551" cy="-419.6597252640878" r="9.239878891636836" fill="none" stroke-width="0.5" stroke="blue" />
<circle cx="374.7324559706822" cy="-441.0499742506347" r="10.683507595425596" fill="none" stroke-width="0.5" stroke="blue" />
<circle cx="422.95577987399275" cy="-122.4171731448943" r="8.327231580294619" fill="none" stroke-width="0.5" stroke="blue" />
<circle cx="-24.33405328761971" cy="-329.44776389777684" r="9.253139369450938" fill="none" stroke-width="0.5" stroke="blue" />
<circle cx="-101.31058891463532" cy="-297.423286538539" r="7.379155858715349" fill="none" stroke-width="0.5" stroke="blue" />
<circle cx="138.1410206273903" cy="-408.42104174758055" r="13.06515536159401" fill="none" stroke-width="0.5" stroke="blue" />
<circle cx="-69.156523998595" cy="-400.71647212773576" r="7.877255042048877" fill="none" stroke-width="0.5" stroke="blue" />
<circle cx="195.50044667010548" cy="-155.9212290028203" r="11.333523381421823" fill="none" stroke-width="0.5" stroke="blue" />
<circle cx="-33.90178532325777" cy="-70.8530593777742" r="12.43431692748429" fill="none" stroke-width="0.5" stroke="blue" />
<circle cx="367.15744439988265" cy="-45.327201403134204" r="14.429969663143394" fill="none" stroke-width="0.5" stroke="blue" />
<circle cx="463.08328756288756" cy="-52.14154028241411" r="9.83728461137404" fill="none" stroke-width="0.5" stroke="blue" />
<circle cx="478.2331886085389" cy="-266.501715572883" r="10.490847439625707" fill="none" stroke-width="0.5" stroke="blue" />
<circle cx="444.2843138681479" cy="-487.3496279524307" r="8.540866055632911" fill="none" stroke-width="0.5" stroke="blue" />
<circle cx="460.12838847681047" cy="-413.5777015867517" r="7.217361140306357" fill="none" stroke-width="0.5" stroke="blue" />
<circle cx="218.39732875901854" cy="82.76327898180847" r="8.214726303118402" fill="none" stroke-width="0.5" stroke="blue" />
<circle cx="483.80857221329325" cy="-82.51929223448421" r="9.679289399369498" fill="none" stroke-width="0.5" stroke="blue" />
<circle cx="100.88848265716952" cy="49.517602111715185" r="12.036851978195847" fill="none" stroke-width="0.5" stroke="blue" />
<circle cx="19.12668383263954" cy="-368.3367927998421" r="12.60902330118385" fill="none" stroke-width="0.5" stroke="blue" />
<circle cx="314.8497340775119" cy="-166.21523065870716" r="11.513653952831456" fill="none" stroke-width="0.5" stroke="blue" />
<circle cx="-40.477193864646324" cy="-258.31366887108425" r="12.960758908488424" fill="none" stroke-width="0.5" stroke="blue" />
<circle cx="264.128280600138" cy="-257.1830127792695" r="13.307909222069158" fill="none" stroke-width="0.5" stroke="blue" />
<circle cx="230.67343360127936" cy="-123.65498048125212" r="10.57855887512564" fill="none" stroke-width="0.5" stroke="blue" />
<circle cx="447.8818565482614" cy="-136.4127526121616" r="12.150760735705775" fill="none" stroke-width="0.5" stroke="blue" />
<circle cx="54.93860025811763" cy="67.8374276552025" r="9.55245332834293" fill="none" stroke-width="0.5" stroke="blue" />
<circle cx="66.58440375844916" cy="-469.4060991970804" r="10.099844208382349" fill="none" stroke-width="0.5" stroke="blue" />
<circle cx="396.79063249265914" cy="-217.53075085666822" r="9.538024509706883" fill="none" stroke-width="0.5" stroke="blue" />
<circle cx="-37.52637094226598" cy="-499.6271019113533" r="6.416360336100125" fill="none" stroke-width="0.5" stroke="blue" />
<circle cx="19.980326420739168" cy="-35.26478423167575" r="11.628311657395036" fill="none" stroke-width="0.5" stroke="blue" />
<circle cx="231.92132061684953" cy="-351.60995528076757" r="12.312269204714461" fill="none" stroke-width="0.5" stroke="blue" />
<circle cx="306.6126873556394" cy="93.05363027792444" r="8.160321202547566" fill="none" stroke-width="0.5" stroke="blue" />
<circle cx="450.3554389112325" cy="50.273370469467736" r="6.312227584427221" fill="none" stroke-width="0.5" stroke="blue" />
<circle cx="-64.82325042456627" cy="82.9833229488344" r="10.039836885786867" fill="none" stroke-width="0.5" stroke="blue" />
<circle cx="224.92090464275637" cy="-452.31200150547363" r="13.855556436146701" fill="none" stroke-width="0.5" stroke="blue" />
<circle cx="349.0918232532844" cy="96.26998823532529" r="11.33235321192328" fill="none" stroke-width="0.5" stroke="blue" />
<circle cx="87.62239240728584" cy="-196.02188001783233" r="14.559627243367991" fill="none" stroke-width="0.5" stroke="blue" />
<circle cx="-97.21884973924236" cy="-375.88626767471635" r="7.017504301960026" fill="none" stroke-width="0.5" stroke="blue" />
<circle cx="-30.249031705837204" cy="-487.36547905049076" r="4.143125078037185" fill="none" stroke-width="0.5" stroke="blue" />
<circle cx="-52.0411770187723" cy="-353.0708408451021" r="9.016857009231805" fill="none" stroke-width="0.5" stroke="blue" />
<circle cx="26.851903385130537" cy="112.52682626756392" r="11.997261363145483" fill="none" stroke-width="0.5" stroke="blue" />
<circle cx="432.48985879771425" cy="-400.12048508428484" r="6.739580393663759" fill="none" stroke-width="0.5" stroke="blue" />
<circle cx="-124.84186162481149" cy="-230.92471684186134" r="8.117811814099953" fill="none" stroke-width="0.5" stroke="blue" />
<circle cx="463.5560876468288" cy="-106.64933761644721" r="11.190435339099922" fill="none" stroke-width="0.5" stroke="blue" />
<circle cx="-14.868277583766645" cy="-235.1404516079464" r="10.619027524699465" fill="none" stroke-width="0.5" stroke="blue" />
<circle cx="159.42513573037832" cy="-62.62506459583202" r="9.310885699972264" fill="none" stroke-width="0.5" stroke="blue" />
<circle cx="366.3374962505278" cy="-6.48274698824542" r="15.501745161047896" fill="none" stroke-width="0.5" stroke="blue" />
<circle cx="-86.50535574050761" cy="-103.82676964633117" r="9.391720639920832" fill="none" stroke-width="0.5" stroke="blue" />
<circle cx="-77.77613150371978" cy="-382.0373342306176" r="7.677475265927808" fill="none" stroke-width="0.5" stroke="blue" />
<circle cx="439.47322850455384" cy="-271.38043060774856" r="11.212499121539304" fill="none" stroke-width="0.5" stroke="blue" />
<circle cx="273.2353062702465" cy="82.34994112384277" r="7.393467800707091" fill="none" stroke-width="0.5" stroke="blue" />
<circle cx="-120.37614781361398" cy="-123.24243099317589" r="9.759067113696707" fill="none" stroke-width="0.5" stroke="blue" />
<circle cx="90.91186951464496" cy="-464.2471562473302" r="8.783634074062187" fill="none" stroke-width="0.5" stroke="blue" />
<circle cx="156.6240753997266" cy="6.377726393560904" r="13.57672782447913" fill="none" stroke-width="0.5" stroke="blue" />
<circle cx="326.2520922051933" cy="-328.1814686648575" r="14.885763942200663" fill="none" stroke-width="0.5" stroke="blue" />
<circle cx="133.37258469237622" cy="-240.67098845156823" r="15.59679056874364" fill="none" stroke-width="0.5" stroke="blue" />
<circle cx="50.54832278266339" cy="-37.369060130046016" r="12.545520296854626" fill="none" stroke-width="0.5" stroke="blue" />
<circle cx="-29.88170529379329" cy="-104.62215662816155" r="15.019460235054433" fill="none" stroke-width="0.5" stroke="blue" />
<circle cx="-89.84453785628624" cy="-75.55493945683452" r="12.244610367828308" fill="none" stroke-width="0.5" stroke="blue" />
<circle cx="-46.216705195095415" cy="-200.36646314412616" r="11.337995956150817" fill="none" stroke-width="0.5" stroke="blue" />
<circle cx="402.9517768806004" cy="-119.1309056784871" r="9.12246332676291" fill="none" stroke-width="0.5" stroke="blue" />
<circle cx="365.6601700227827" cy="-192.33132125153622" r="10.242995632858063" fill="none" stroke-width="0.5" stroke="blue" />
<circle cx="481.18569044546973" cy="-137.50083145400234" r="14.050665986031877" fill="none" stroke-width="0.5" stroke="blue" />
<circle cx="111.52192429157215" cy="74.06175372649341" r="9.541568115149534" fill="none" stroke-width="0.5" stroke="blue" />
<circle cx="139.13126648103008" cy="83.34266348263033" r="11.963775387549168" fill="none" stroke-width="0.5" stroke="blue" />
<circle cx="335.4314421119157" cy="-67.67874002281486" r="15.373682101848864" fill="none" stroke-width="0.5" stroke="blue" />
<circle cx="50.76705769458372" cy="-453.48287372794783" r="8.373022899731978" fill="none" stroke-width="0.5" stroke="blue" />
<circle cx="466.01669461988547" cy="-18.429784719731785" r="12.599437654576679" fill="none" stroke-width="0.5" stroke="blue" />
<circle cx="-10.158857016363786" cy="-468.7233408938432" r="6.317737256058722" fill="none" stroke-width="0.5" stroke="blue" />
<circle cx="493.56785931466305" cy="-216.07207323509394" r="10.966432648911924" fill="none" stroke-width="0.5" stroke="blue" />
<circle cx="-88.29733695246478" cy="-363.0958960894445" r="5.303132046651867" fill="none" stroke-width="0.5" stroke="blue" />
<circle cx="409.3984903885027" cy="-485.3195283203094" r="7.868644955410119" fill="none" stroke-width="0.5" stroke="blue" />
<circle cx="12.567027874427653" cy="-459.4543139220737" r="9.326933620057572" fill="none" stroke-width="0.5" stroke="blue" />
<circle cx="126.50934704665721" cy="8.211461709364285" r="11.062972715822445" fill="none" stroke-width="0.5" stroke="blue" />
<circle cx="-41.53988191734478" cy="-415.9555723745189" r="5.05908571779813" fill="none" stroke-width="0.5" stroke="blue" />
<circle cx="102.18992499741458" cy="-294.605393003825" r="9.964089181226978" fill="none" stroke-width="0.5" stroke="blue" />
<circle cx="4.675162015038092" cy="-11.517724469661978" r="12.713363371952516" fill="none" stroke-width="0.5" stroke="blue" />
<circle cx="482.83561813962893" cy="-41.013598512599245" r="10.038579035714404" fill="none" stroke-width="0.5" stroke="blue" />
<circle cx="229.81060955929777" cy="-308.9254863401147" r="15.41166165708417" fill="none" stroke-width="0.5" stroke="blue" />
<circle cx="84.70162197422808" cy="-35.80419149493102" r="15.01323462947333" fill="none" stroke-width="0.5" stroke="blue" />
<circle cx="-68.95972858874173" cy="-427.9639959281602" r="1.664874667666576" fill="none" stroke-width="0.5" stroke="blue" />
<circle cx="285.25640371305286" cy="-171.2329197089212" r="12.957731857796555" fill="none" stroke-width="0.5" stroke="blue" />
<circle cx="-89.42046751776938" cy="-394.50686010877934" r="3.752237437255306" fill="none" stroke-width="0.5" stroke="blue" />
<circle cx="72.93550046761044" cy="-434.4063242410985" r="13.16090063594804" fill="none" stroke-width="0.5" stroke="blue" />
<circle cx="390.9741719559082" cy="67.20802415739912" r="9.399885299875583" fill="none" stroke-width="0.5" stroke="blue" />
<circle cx="369.1413827920175" cy="-497.0620487348989" r="5.776999248975463" fill="none" stroke-width="0.5" stroke="blue" />
<circle cx="441.24852513815415" cy="-51.07833671223996" r="9.45832832380623" fill="none" stroke-width="0.5" stroke="blue" />
<circle cx="287.04688486637883" cy="-235.18282662837464" r="13.320131587307545" fill="none" stroke-width="0.5" stroke="blue" />
<circle cx="292.5332450680782" cy="23.174646049741572" r="15.139434990866627" fill="none" stroke-width="0.5" stroke="blue" />
<circle cx="501.43583699081853" cy="-264.2361446162774" r="10.490847439625727" fill="none" stroke-width="0.5" stroke="blue" />
<circle cx="276.24427247695536" cy="-30.396126450386795" r="11.207890571392378" fill="none" stroke-width="0.5" stroke="blue" />
<circle cx="67.9904619664448" cy="-247.8749823778606" r="13.07254604883692" fill="none" stroke-width="0.5" stroke="blue" />
<circle cx="-3.077291253707087" cy="-320.6123519264973" r="10.358941715537128" fill="none" stroke-width="0.5" stroke="blue" />
<circle cx="300.2966814477958" cy="-11.20977882148249" r="13.845340310340514" fill="none" stroke-width="0.5" stroke="blue" />
<circle cx="311.12229288982155" cy="-405.1762717888324" r="11.90342156720785" fill="none" stroke-width="0.5" stroke="blue" />
<circle cx="-4.719229053706367" cy="-353.62299857831044" r="12.609023301183854" fill="none" stroke-width="0.5" stroke="blue" />
<circle cx="-86.23769805526675" cy="-13.89342449010997" r="5.2868438853542425" fill="none" stroke-width="0.5" stroke="blue" />
<circle cx="280.08410579443546" cy="-282.0824456095952" r="11.320411127750935" fill="none" stroke-width="0.5" stroke="blue" />
<circle cx="252.09251840156898" cy="-24.31149776458635" r="10.321767335830039" fill="none" stroke-width="0.5" stroke="blue" />
<circle cx="279.8182803945329" cy="-59.52333316930102" r="13.158650405690496" fill="none" stroke-width="0.5" stroke="blue" />
<circle cx="-38.371227971178634" cy="-166.7535599702016" r="13.667427886758405" fill="none" stroke-width="0.5" stroke="blue" />
<circle cx="98.76950485091179" cy="-338.5509250018218" r="10.014037455857794" fill="none" stroke-width="0.5" stroke="blue" />
<circle cx="497.4670508761837" cy="-19.771950810093188" r="11.606916052980894" fill="none" stroke-width="0.5" stroke="blue" />
<circle cx="334.9304874518231" cy="-28.70741623095892" r="15.139295854934625" fill="none" stroke-width="0.5" stroke="blue" />
<circle cx="67.05445361738714" cy="-351.0396239127074" r="13.028809701758775" fill="none" stroke-width="0.5" stroke="blue" />
<circle cx="-23.493188329150247" cy="-138.2539517220211" r="13.905908974794055" fill="none" stroke-width="0.5" stroke="blue" />
<circle cx="70.14843518713177" cy="-501.8768148160253" r="4.352391764427865" fill="none" stroke-width="0.5" stroke="blue" />
<circle cx="262.50566620267006" cy="-399.52570343669527" r="11.165076114580224" fill="none" stroke-width="0.5" stroke="blue" />
<circle cx="115.34836999155335" cy="-48.98939145119278" r="11.500780070853759" fill="none" stroke-width="0.5" stroke="blue" />
<circle cx="130.34158641318342" cy="32.49532196467651" r="11.062972715822449" fill="none" stroke-width="0.5" stroke="blue" />
<circle cx="528.9900727447549" cy="-216.79020490094055" r="6.839592040223415" fill="none" stroke-width="0.5" stroke="blue" />
<circle cx="61.21869703831094" cy="2.6847687629473884" r="14.043757873208078" fill="none" stroke-width="0.5" stroke="blue" />
<circle cx="311.5537989397858" cy="-499.09265670092043" r="10.637464201973328" fill="none" stroke-width="0.5" stroke="blue" />
<circle cx="304.3663995443982" cy="-295.691177728081" r="12.459639284979238" fill="none" stroke-width="0.5" stroke="blue" />
<circle cx="438.4457628728741" cy="-243.65600390275745" r="10.121417136707004" fill="none" stroke-width="0.5" stroke="blue" />
<circle cx="329.029712456087" cy="7.702159302425477" r="15.479270528403605" fill="none" stroke-width="0.5" stroke="blue" />
<circle cx="251.42329304879857" cy="-52.53857694181144" r="12.440555524488632" fill="none" stroke-width="0.5" stroke="blue" />
<circle cx="63.72343016237891" cy="-121.69979955659936" r="10.643083363457231" fill="none" stroke-width="0.5" stroke="blue" />
<circle cx="116.81105237541357" cy="-144.49918904776342" r="13.97933954448784" fill="none" stroke-width="0.5" stroke="blue" />
<circle cx="-57.918826005794756" cy="-376.8766787157529" r="9.232624316176732" fill="none" stroke-width="0.5" stroke="blue" />
<circle cx="489.6372917376821" cy="-417.13937994973884" r="5.234144598319281" fill="none" stroke-width="0.5" stroke="blue" />
<circle cx="-83.84217073717488" cy="-419.6250745248193" r="6.36989282029946" fill="none" stroke-width="0.5" stroke="blue" />
<circle cx="469.9275233153146" cy="67.62201086703134" r="1.0573009279401113" fill="none" stroke-width="0.5" stroke="blue" />
<circle cx="-29.68413993968121" cy="-478.17588022960217" r="4.143125078037175" fill="none" stroke-width="0.5" stroke="blue" />
<circle cx="290.28431823492775" cy="-111.83294599695053" r="13.878192384192717" fill="none" stroke-width="0.5" stroke="blue" />
<circle cx="447.0647586053268" cy="-432.06334392729013" r="10.186089687789359" fill="none" stroke-width="0.5" stroke="blue" />
<circle cx="195.97807294876753" cy="-474.9932066956448" r="12.129508176138987" fill="none" stroke-width="0.5" stroke="blue" />
<circle cx="71.03854207498101" cy="42.505032992408516" r="13.50703576052987" fill="none" stroke-width="0.5" stroke="blue" />
<circle cx="400.62152883185894" cy="-21.38882637002216" r="16.413191238524313" fill="none" stroke-width="0.5" stroke="blue" />
<circle cx="513.9704524974075" cy="-317.7545388182414" r="7.859941729236243" fill="none" stroke-width="0.5" stroke="blue" />
<circle cx="52.14645930619511" cy="-275.1414525520735" r="14.191011072224423" fill="none" stroke-width="0.5" stroke="blue" />
<circle cx="145.19003227642386" cy="-127.17612496668505" r="9.468390150674272" fill="none" stroke-width="0.5" stroke="blue" />
<circle cx="-98.22355012729045" cy="-16.71430391167943" r="5.5409969452439185" fill="none" stroke-width="0.5" stroke="blue" />
<circle cx="358.50372208848825" cy="-221.55881394800429" r="13.540896128490488" fill="none" stroke-width="0.5" stroke="blue" />
<circle cx="-82.37938553208488" cy="-2.796503167757408" r="5.286843885354243" fill="none" stroke-width="0.5" stroke="blue" />
<circle cx="390.9753923784199" cy="43.51805576414548" r="10.107717805842801" fill="none" stroke-width="0.5" stroke="blue" />
<circle cx="347.7349187847887" cy="-419.59326875948" r="13.231515013922026" fill="none" stroke-width="0.5" stroke="blue" />
<circle cx="201.32424971345029" cy="-117.89842701925491" r="13.217986227452995" fill="none" stroke-width="0.5" stroke="blue" />
<circle cx="419.80404977558106" cy="-188.54903317904618" r="12.457006890086955" fill="none" stroke-width="0.5" stroke="blue" />
<circle cx="54.68476501585556" cy="-404.0845836973787" r="12.2057574295398" fill="none" stroke-width="0.5" stroke="blue" />
<circle cx="334.34426309269895" cy="-492.81666669138514" r="10.637464201973312" fill="none" stroke-width="0.5" stroke="blue" />
<circle cx="356.2931351292128" cy="-146.28430235287186" r="10.721273285100661" fill="none" stroke-width="0.5" stroke="blue" />
<circle cx="137.55927010383547" cy="-457.7107962972633" r="9.013466491528925" fill="none" stroke-width="0.5" stroke="blue" />
<circle cx="-67.13654464912118" cy="-157.0058061385703" r="8.360386329348822" fill="none" stroke-width="0.5" stroke="blue" />
<circle cx="381.55463605763424" cy="-300.9888039770347" r="12.89193450616382" fill="none" stroke-width="0.5" stroke="blue" />
<circle cx="261.50788111617766" cy="-452.45777050458116" r="11.673805914766426" fill="none" stroke-width="0.5" stroke="blue" />
<circle cx="204.85147983965692" cy="-81.84203287092504" r="13.469888998880874" fill="none" stroke-width="0.5" stroke="blue" />
<circle cx="395.72595083378445" cy="-406.20216984442374" r="14.982393229424014" fill="none" stroke-width="0.5" stroke="blue" />
<circle cx="118.95150785654036" cy="-364.8804907810625" r="10.18685622124118" fill="none" stroke-width="0.5" stroke="blue" />
<circle cx="250.9315584171544" cy="72.78593610580882" r="10.920521528597266" fill="none" stroke-width="0.5" stroke="blue" />
<circle cx="482.9526896134835" cy="-239.82171879423458" r="10.276996987095577" fill="none" stroke-width="0.5" stroke="blue" />
<circle cx="432.6123555276071" cy="-472.3831824948819" r="8.540866055632971" fill="none" stroke-width="0.5" stroke="blue" />
<circle cx="425.63677036864755" cy="-440.5942578069138" r="9.423701062091894" fill="none" stroke-width="0.5" stroke="blue" />
<circle cx="-30.775378829981687" cy="22.887777352105402" r="9.852573127121822" fill="none" stroke-width="0.5" stroke="blue" />
<circle cx="536.7396468172192" cy="-203.71516981234828" r="6.839592040223415" fill="none" stroke-width="0.5" stroke="blue" />
<circle cx="264.6134808025763" cy="-85.33978580969847" r="13.482552406981522" fill="none" stroke-width="0.5" stroke="blue" />
<circle cx="485.7706453885863" cy="37.28345738349043" r="4.884561820940069" fill="none" stroke-width="0.5" stroke="blue" />
<circle cx="415.915296970325" cy="53.14332396069257" r="6.791691216738974" fill="none" stroke-width="0.5" stroke="blue" />
<circle cx="234.94976706460915" cy="-388.25637786458174" r="13.397047003793345" fill="none" stroke-width="0.5" stroke="blue" />
<circle cx="-93.42696148855487" cy="-246.3107783414467" r="11.241654703142808" fill="none" stroke-width="0.5" stroke="blue" />
<circle cx="88.1344458888144" cy="-163.51225259574622" r="12.980707714777823" fill="none" stroke-width="0.5" stroke="blue" />
<circle cx="223.9294419062478" cy="17.886635396093904" r="12.545104508672532" fill="none" stroke-width="0.5" stroke="blue" />
<circle cx="245.72283962455717" cy="-423.71857103264307" r="13.249868579324882" fill="none" stroke-width="0.5" stroke="blue" />
<circle cx="-74.94976833536542" cy="-28.089647290049363" r="7.442297239726923" fill="none" stroke-width="0.5" stroke="blue" />
<circle cx="-69.65101434348075" cy="31.653045921084132" r="3.7699354992553853" fill="none" stroke-width="0.5" stroke="blue" />
<circle cx="364.57200651280823" cy="-85.51097209877243" r="12.417768961077348" fill="none" stroke-width="0.5" stroke="blue" />
<circle cx="517.9812570180154" cy="-338.11865447566856" r="9.339898890290481" fill="none" stroke-width="0.5" stroke="blue" />
<circle cx="27.72964126581541" cy="10.286536999566746" r="11.50772535645025" fill="none" stroke-width="0.5" stroke="blue" />
<circle cx="94.5522163362968" cy="-231.80018676455038" r="13.97121986319895" fill="none" stroke-width="0.5" stroke="blue" />
<circle cx="142.46142901509344" cy="-106.31293229593109" r="9.4683901506743" fill="none" stroke-width="0.5" stroke="blue" />
<circle cx="82.45190897393255" cy="84.73391821141344" r="9.06259927939756" fill="none" stroke-width="0.5" stroke="blue" />
<circle cx="38.00246418799726" cy="-478.2424893064114" r="11.447127018686345" fill="none" stroke-width="0.5" stroke="blue" />
<circle cx="114.37766195828496" cy="95.07204943636249" r="9.541568115149534" fill="none" stroke-width="0.5" stroke="blue" />
<circle cx="33.71141598383889" cy="67.9816285917783" r="6.127011894497146" fill="none" stroke-width="0.5" stroke="blue" />
<circle cx="437.79758229174365" cy="-111.36482447704634" r="7.927095577831774" fill="none" stroke-width="0.5" stroke="blue" />
<circle cx="520.6388156648942" cy="-128.76339228163204" r="15.014844527804858" fill="none" stroke-width="0.5" stroke="blue" />
<circle cx="201.4997812413744" cy="-52.097188044441836" r="8.649361884635985" fill="none" stroke-width="0.5" stroke="blue" />
<circle cx="476.06758597288206" cy="-352.6489834813985" r="13.6844292686305" fill="none" stroke-width="0.5" stroke="blue" />
<circle cx="381.13697476225576" cy="-492.48883665758217" r="5.776999248975511" fill="none" stroke-width="0.5" stroke="blue" />
<circle cx="447.20472181122614" cy="-76.13084722955156" r="8.48672011532569" fill="none" stroke-width="0.5" stroke="blue" />
<circle cx="314.31291223809035" cy="127.57988762715824" r="13.37549005701877" fill="none" stroke-width="0.5" stroke="blue" />
<circle cx="-50.545789868391246" cy="-436.31741115380305" r="5.230176909329234" fill="none" stroke-width="0.5" stroke="blue" />
<circle cx="-5.967934253422726" cy="-265.8864859278433" r="12.841455447424304" fill="none" stroke-width="0.5" stroke="blue" />
<circle cx="490.3341545607055" cy="-62.02351847924648" r="9.679289399369503" fill="none" stroke-width="0.5" stroke="blue" />
<circle cx="356.1926118198055" cy="71.47566115755414" r="9.22476226701274" fill="none" stroke-width="0.5" stroke="blue" />
<circle cx="19.26852226315931" cy="-296.76631985124135" r="14.705905176547372" fill="none" stroke-width="0.5" stroke="blue" />
<circle cx="-56.56649880500076" cy="-415.97126434850935" r="6.761981286472423" fill="none" stroke-width="0.5" stroke="blue" />
<circle cx="492.41848583329283" cy="-380.9531129286698" r="12.741275889932488" fill="none" stroke-width="0.5" stroke="blue" />
<circle cx="164.37713098655468" cy="-302.0417553578063" r="14.345394763997707" fill="none" stroke-width="0.5" stroke="blue" />
<circle cx="256.47942259002383" cy="37.48527086893361" r="14.942118516510748" fill="none" stroke-width="0.5" stroke="blue" />
<circle cx="460.85471961164967" cy="-245.5874372934106" r="10.121417136706988" fill="none" stroke-width="0.5" stroke="blue" />
<circle cx="361.60858258290915" cy="-253.6496852357831" r="12.098124839157382" fill="none" stroke-width="0.5" stroke="blue" />
<circle cx="172.14552004013092" cy="-136.61426046476296" r="12.852024597608604" fill="none" stroke-width="0.5" stroke="blue" />
<circle cx="-88.52280777187448" cy="-124.59952230744888" r="7.5337271790377365" fill="none" stroke-width="0.5" stroke="blue" />
<circle cx="165.9238034001305" cy="94.81995584304013" r="13.116309526073072" fill="none" stroke-width="0.5" stroke="blue" />
<circle cx="26.69210312114246" cy="-397.242896632167" r="12.967480667987386" fill="none" stroke-width="0.5" stroke="blue" />
<circle cx="92.54873374418054" cy="-367.87222312715994" r="11.957279415065289" fill="none" stroke-width="0.5" stroke="blue" />
<circle cx="-85.59711270103678" cy="-302.1121179796612" r="7.379155858715359" fill="none" stroke-width="0.5" stroke="blue" />
<circle cx="507.47310636156334" cy="-44.75683682744382" r="10.947880969831914" fill="none" stroke-width="0.5" stroke="blue" />
<circle cx="161.50443707305" cy="54.0235314642894" r="14.114602850443895" fill="none" stroke-width="0.5" stroke="blue" />
<circle cx="164.48731450948085" cy="-33.62143258493423" r="9.830117550496732" fill="none" stroke-width="0.5" stroke="blue" />
<circle cx="49.90994787599876" cy="-102.5015827960356" r="10.643083363457231" fill="none" stroke-width="0.5" stroke="blue" />
<circle cx="-21.963473726327503" cy="-407.7737813891181" r="9.547823622768597" fill="none" stroke-width="0.5" stroke="blue" />
<circle cx="327.2712732348423" cy="-255.9532104676491" r="14.09666546295731" fill="none" stroke-width="0.5" stroke="blue" />
<circle cx="7.213344475159553" cy="-163.65002367953738" r="17.290270496671518" fill="none" stroke-width="0.5" stroke="blue" />
<circle cx="-9.479719777623838" cy="74.27185071875412" r="2.8619907682368457" fill="none" stroke-width="0.5" stroke="blue" />
<circle cx="-61.83023166007302" cy="-9.09741999246115" r="6.243714616156482" fill="none" stroke-width="0.5" stroke="blue" />
<circle cx="119.26440253913447" cy="-16.69267516211098" r="11.671452950752412" fill="none" stroke-width="0.5" stroke="blue" />
<circle cx="413.2331580350188" cy="-511.98220298322246" r="12.121657744230593" fill="none" stroke-width="0.5" stroke="blue" />
<circle cx="391.86906838072684" cy="-457.48097158304313" r="5.512996045068102" fill="none" stroke-width="0.5" stroke="blue" />
<circle cx="516.4936835773975" cy="-69.13575388444681" r="7.82469341943853" fill="none" stroke-width="0.5" stroke="blue" />
<circle cx="-42.732092159363525" cy="-229.6003866342664" r="10.7342649756304" fill="none" stroke-width="0.5" stroke="blue" />
<circle cx="7.359291813534704" cy="-419.2090889510501" r="9.404315302165356" fill="none" stroke-width="0.5" stroke="blue" />
<circle cx="418.1445578750505" cy="-90.22355001733918" r="10.885663557177725" fill="none" stroke-width="0.5" stroke="blue" />
<circle cx="-120.10144378577756" cy="-155.76333509499915" r="7.786438823857346" fill="none" stroke-width="0.5" stroke="blue" />
<circle cx="392.00833344514876" cy="-483.4924104588678" r="6.349978748161911" fill="none" stroke-width="0.5" stroke="blue" />
<circle cx="-4.527933298196116" cy="-82.56449935338775" r="14.230114347441308" fill="none" stroke-width="0.5" stroke="blue" />
<circle cx="153.3746027639926" cy="-335.5795202004605" r="11.124250427840188" fill="none" stroke-width="0.5" stroke="blue" />
<circle cx="180.03651889784774" cy="-14.080682010191989" r="10.916768640961058" fill="none" stroke-width="0.5" stroke="blue" />
<circle cx="255.159138985581" cy="-285.89535509919614" r="11.346714522833153" fill="none" stroke-width="0.5" stroke="blue" />
<circle cx="-102.662026426289" cy="-413.3281296624512" r="6.6409260089544775" fill="none" stroke-width="0.5" stroke="blue" />
<circle cx="-11.713948951865534" cy="-427.75062793410854" r="7.8706678661575165" fill="none" stroke-width="0.5" stroke="blue" />
<circle cx="66.80156266323168" cy="-309.45101452383705" r="14.306014298785339" fill="none" stroke-width="0.5" stroke="blue" />
<circle cx="393.8179685731509" cy="-63.14526073512599" r="12.655266096965004" fill="none" stroke-width="0.5" stroke="blue" />
<circle cx="-103.32709355279026" cy="-160.00854581439305" r="5.071755710258315" fill="none" stroke-width="0.5" stroke="blue" />
<circle cx="152.98175474982426" cy="-372.9248722079692" r="15.73565631526956" fill="none" stroke-width="0.5" stroke="blue" />
<circle cx="-1.7953596250319448" cy="21.807436454188206" r="13.05006710859876" fill="none" stroke-width="0.5" stroke="blue" />
<circle cx="-57.188120168017896" cy="-127.38263162360035" r="13.158084811595087" fill="none" stroke-width="0.5" stroke="blue" />
<circle cx="-118.06666596504529" cy="-404.2448594757793" r="7.784361379457094" fill="none" stroke-width="0.5" stroke="blue" />
<circle cx="208.95245220239084" cy="-498.6196439592989" r="10.397414195351011" fill="none" stroke-width="0.5" stroke="blue" />
<circle cx="216.97174955245833" cy="-142.75695999929584" r="10.578558875125635" fill="none" stroke-width="0.5" stroke="blue" />
<circle cx="430.51774793580523" cy="37.03993909033608" r="9.782202826696096" fill="none" stroke-width="0.5" stroke="blue" />
<circle cx="58.180684927187286" cy="-70.68532639999583" r="14.79315891355731" fill="none" stroke-width="0.5" stroke="blue" />
<circle cx="-99.70977134283893" cy="-212.4326362078007" r="13.110001800071197" fill="none" stroke-width="0.5" stroke="blue" />
<circle cx="291.21647467960327" cy="-513.4282036416288" r="11.196906692966335" fill="none" stroke-width="0.5" stroke="blue" />
<circle cx="25.45879672216438" cy="-95.35899244116327" r="11.462864668979883" fill="none" stroke-width="0.5" stroke="blue" />
<circle cx="447.3382163828518" cy="-191.40839396524348" r="11.389628142670638" fill="none" stroke-width="0.5" stroke="blue" />
<circle cx="-73.54367649158124" cy="62.44741113884806" r="9.316359726611125" fill="none" stroke-width="0.5" stroke="blue" />
<circle cx="-66.32721906784144" cy="14.168919075756076" r="8.008765016032212" fill="none" stroke-width="0.5" stroke="blue" />
<circle cx="403.3423099277269" cy="-453.18513214034294" r="5.512996045068113" fill="none" stroke-width="0.5" stroke="blue" />
<circle cx="130.76189297365292" cy="-345.5680771492702" r="10.186856221241161" fill="none" stroke-width="0.5" stroke="blue" />
<circle cx="25.01523243970214" cy="78.45829144940674" r="6.127011894497148" fill="none" stroke-width="0.5" stroke="blue" />
<circle cx="6.822967197531828" cy="54.33451055320402" r="11.142542653461778" fill="none" stroke-width="0.5" stroke="blue" />
<circle cx="501.55225273424924" cy="-162.7445634204655" r="13.658019131716177" fill="none" stroke-width="0.5" stroke="blue" />
<circle cx="109.66395385508925" cy="-435.3099620634293" r="15.516857915037273" fill="none" stroke-width="0.5" stroke="blue" />
<circle cx="500.2927781566097" cy="-421.80315843920846" r="5.234144598319281" fill="none" stroke-width="0.5" stroke="blue" />
<circle cx="441.9963270032838" cy="-94.25676136804604" r="7.927095577831784" fill="none" stroke-width="0.5" stroke="blue" />
<circle cx="268.8797388516003" cy="-307.3573001145532" r="11.46281657213606" fill="none" stroke-width="0.5" stroke="blue" />
<circle cx="452.7165828873319" cy="13.429332070013334" r="10.474236421218283" fill="none" stroke-width="0.5" stroke="blue" />
<circle cx="84.09119992772989" cy="104.80619902390211" r="9.062599279397547" fill="none" stroke-width="0.5" stroke="blue" />
<circle cx="98.01329612040672" cy="-76.49798894511093" r="11.798646901538348" fill="none" stroke-width="0.5" stroke="blue" />
<circle cx="484.9991382354313" cy="-431.61745980909785" r="6.841291619693973" fill="none" stroke-width="0.5" stroke="blue" />
<circle cx="-89.20139581003072" cy="-453.821387447062" r="11.915334320487796" fill="none" stroke-width="0.5" stroke="blue" />
<circle cx="252.5951740017927" cy="-476.8204503267714" r="8.02661277459814" fill="none" stroke-width="0.5" stroke="blue" />
<circle cx="96.10273647041213" cy="11.537456066676329" r="13.764588680852727" fill="none" stroke-width="0.5" stroke="blue" />
<circle cx="97.84246137606746" cy="-316.31682642845516" r="9.964089181226958" fill="none" stroke-width="0.5" stroke="blue" />
<circle cx="22.496566428350285" cy="-263.85969170915314" r="12.841455447424304" fill="none" stroke-width="0.5" stroke="blue" />
<circle cx="376.8042627587879" cy="-125.83844480052" r="12.147362845669738" fill="none" stroke-width="0.5" stroke="blue" />
<circle cx="469.40439550690655" cy="-437.09377755349277" r="7.437753458088417" fill="none" stroke-width="0.5" stroke="blue" />
<circle cx="524.1803613282426" cy="-303.582817589349" r="7.8599417292362315" fill="none" stroke-width="0.5" stroke="blue" />
<circle cx="493.80044158004875" cy="-108.93883515934081" r="12.7106457198142" fill="none" stroke-width="0.5" stroke="blue" />
<circle cx="118.73761447513462" cy="-178.05310973978078" r="14.103321709881158" fill="none" stroke-width="0.5" stroke="blue" />
<circle cx="113.11508354519502" cy="-112.21971873951063" r="9.920024438384084" fill="none" stroke-width="0.5" stroke="blue" />
<circle cx="-13.398588997976082" cy="92.26174511024543" r="8.285303363613496" fill="none" stroke-width="0.5" stroke="blue" />
<circle cx="-34.72340070340504" cy="-456.2414724936888" r="10.127623577791889" fill="none" stroke-width="0.5" stroke="blue" />
<circle cx="234.83573246391512" cy="-74.6550051814547" r="11.099345791290517" fill="none" stroke-width="0.5" stroke="blue" />
<circle cx="-8.571338839425021" cy="-45.26657186240405" r="12.448181110311562" fill="none" stroke-width="0.5" stroke="blue" />
<circle cx="483.1415115322105" cy="26.75209461574158" r="4.884561820940057" fill="none" stroke-width="0.5" stroke="blue" />
<circle cx="47.62590095219384" cy="-372.50593157765405" r="12.961149125431378" fill="none" stroke-width="0.5" stroke="blue" />
<circle cx="390.3053411072607" cy="-95.4749994533379" r="12.070860906050044" fill="none" stroke-width="0.5" stroke="blue" />
<circle cx="510.82731610630015" cy="-404.7218194814295" r="2.3506937378864388" fill="none" stroke-width="0.5" stroke="blue" />
<circle cx="-76.61826021468552" cy="-361.5213442524087" r="5.303132046651871" fill="none" stroke-width="0.5" stroke="blue" />
<circle cx="344.41511715810816" cy="-448.8086224337604" r="7.568481953418811" fill="none" stroke-width="0.5" stroke="blue" />
<circle cx="223.06408832565393" cy="100.83489386769928" r="2.623261321502216" fill="none" stroke-width="0.5" stroke="blue" />
<circle cx="1.8044441075021407" cy="-120.50670884548981" r="13.905908974794059" fill="none" stroke-width="0.5" stroke="blue" />
<circle cx="233.57944838037866" cy="-270.9135421579235" r="11.821712969733616" fill="none" stroke-width="0.5" stroke="blue" />
<circle cx="-101.76785726699048" cy="-348.6673593433" r="8.882657936182483" fill="none" stroke-width="0.5" stroke="blue" />
<circle cx="438.9600716802535" cy="66.80804377280344" r="4.2601494296929285" fill="none" stroke-width="0.5" stroke="blue" />
<circle cx="-46.01136410612465" cy="-397.02448882530217" r="8.753397377914478" fill="none" stroke-width="0.5" stroke="blue" />
<circle cx="232.71985386602165" cy="-526.7121007644549" r="16.558994263419468" fill="none" stroke-width="0.5" stroke="blue" />
<circle cx="422.3326149137852" cy="-225.1972715825767" r="8.895218078011295" fill="none" stroke-width="0.5" stroke="blue" />
<circle cx="-24.884646637567016" cy="-213.77388066653208" r="10.091180296383898" fill="none" stroke-width="0.5" stroke="blue" />
<circle cx="178.71116087941394" cy="-341.3239007513551" r="11.690815400242531" fill="none" stroke-width="0.5" stroke="blue" />
<circle cx="-85.95814416456354" cy="-405.6288012158616" r="4.608389938226565" fill="none" stroke-width="0.5" stroke="blue" />
<circle cx="145.68575813796346" cy="-159.80073955769316" r="13.22951450967879" fill="none" stroke-width="0.5" stroke="blue" />
<circle cx="123.82344702022114" cy="-92.95080914627995" r="8.837643207731379" fill="none" stroke-width="0.5" stroke="blue" />
<circle cx="0.9829036842354927" cy="-477.26537657683804" r="6.317737256058721" fill="none" stroke-width="0.5" stroke="blue" />
<circle cx="411.85746766338195" cy="67.68024314114717" r="6.791691216738976" fill="none" stroke-width="0.5" stroke="blue" />
<circle cx="479.1931512380534" cy="7.068436170187434" r="9.034089974080203" fill="none" stroke-width="0.5" stroke="blue" />
<circle cx="271.8394110566395" cy="-145.75481123791235" r="12.647809881991872" fill="none" stroke-width="0.5" stroke="blue" />
<circle cx="-29.99142119550991" cy="-376.0811538329059" r="11.865518316587545" fill="none" stroke-width="0.5" stroke="blue" />
<circle cx="142.64262453137098" cy="-33.59525106871531" r="9.830117550496729" fill="none" stroke-width="0.5" stroke="blue" />
<circle cx="476.8359644474524" cy="-405.29259132239855" r="7.848861521738241" fill="none" stroke-width="0.5" stroke="blue" />
<circle cx="422.9840326632235" cy="7.425292868475002" r="13.315707321893198" fill="none" stroke-width="0.5" stroke="blue" />
<circle cx="281.1501964238603" cy="96.7477556315181" r="7.393467800707091" fill="none" stroke-width="0.5" stroke="blue" />
<circle cx="162.43856216100312" cy="-264.7977029393158" r="15.731779913330616" fill="none" stroke-width="0.5" stroke="blue" />
<circle cx="127.86759720431856" cy="-315.4230896898298" r="13.51729552239414" fill="none" stroke-width="0.5" stroke="blue" />
<circle cx="-15.160544138483356" cy="122.67732727408296" r="13.709958248192011" fill="none" stroke-width="0.5" stroke="blue" />
<circle cx="35.904177465896325" cy="38.455660535780126" r="13.199065079928541" fill="none" stroke-width="0.5" stroke="blue" />
<circle cx="333.90119805096185" cy="-111.34298580894857" r="16.373487297056208" fill="none" stroke-width="0.5" stroke="blue" />
<circle cx="146.26798962001138" cy="-83.09771491591952" r="10.586351348888872" fill="none" stroke-width="0.5" stroke="blue" />
<circle cx="331.2547832474403" cy="-388.01836773444705" r="11.90342156720785" fill="none" stroke-width="0.5" stroke="blue" />
<circle cx="399.5106176547039" cy="-357.7777492653591" r="12.039042987139963" fill="none" stroke-width="0.5" stroke="blue" />
<circle cx="415.2373998646242" cy="-150.8218353427702" r="13.245589472358448" fill="none" stroke-width="0.5" stroke="blue" />
<circle cx="-26.109908637415284" cy="-293.91054088390194" r="15.530195575838249" fill="none" stroke-width="0.5" stroke="blue" />
<circle cx="461.14504080181587" cy="-386.8432199452177" r="10.898776939910874" fill="none" stroke-width="0.5" stroke="blue" />
<circle cx="-63.100591082443124" cy="-471.4766442739433" r="7.132937519327707" fill="none" stroke-width="0.5" stroke="blue" />
<circle cx="-29.392574432343054" cy="-432.5858778675673" r="6.861213080309451" fill="none" stroke-width="0.5" stroke="blue" />
<circle cx="403.13224398781733" cy="96.84546049327469" r="1.227571391612829" fill="none" stroke-width="0.5" stroke="blue" />
<circle cx="264.3409686477809" cy="-501.4740960009312" r="11.161748380980102" fill="none" stroke-width="0.5" stroke="blue" />
<circle cx="160.35316614269937" cy="-481.3924820835734" r="14.791137464988683" fill="none" stroke-width="0.5" stroke="blue" />
<circle cx="195.10023777612093" cy="-310.54700995653343" r="13.76539801569755" fill="none" stroke-width="0.5" stroke="blue" />
<circle cx="10.489729117722773" cy="-233.87444411046036" r="11.425315486604113" fill="none" stroke-width="0.5" stroke="blue" />
<circle cx="304.3447849252574" cy="-139.2817209439845" r="13.009342804481468" fill="none" stroke-width="0.5" stroke="blue" />
<circle cx="-8.119317367638809" cy="-198.88101618827235" r="10.091180296383904" fill="none" stroke-width="0.5" stroke="blue" />
<circle cx="430.702985043883" cy="62.17721390295424" r="4.260149429692971" fill="none" stroke-width="0.5" stroke="blue" />
<circle cx="-105.10688015733783" cy="-271.7501476702621" r="6.205322812575427" fill="none" stroke-width="0.5" stroke="blue" />
<circle cx="438.3990187725871" cy="-23.03347906138852" r="12.599437654576654" fill="none" stroke-width="0.5" stroke="blue" />
<circle cx="-60.57733371692148" cy="-455.25822342365194" r="7.3212446047001505" fill="none" stroke-width="0.5" stroke="blue" />
<circle cx="382.5596445525311" cy="-166.73611415980392" r="13.801925237215324" fill="none" stroke-width="0.5" stroke="blue" />
<circle cx="-63.25026266293761" cy="-56.83329589237274" r="11.683184028329645" fill="none" stroke-width="0.5" stroke="blue" />
<circle cx="422.8544784013726" cy="-338.6708631839485" r="11.659516937195923" fill="none" stroke-width="0.5" stroke="blue" />
<circle cx="518.8352010220063" cy="-92.02989527876619" r="5.195751437718276" fill="none" stroke-width="0.5" stroke="blue" />
<circle cx="353.5716466157267" cy="-309.5295614877656" r="12.333399842090941" fill="none" stroke-width="0.5" stroke="blue" />
<circle cx="22.87559088429832" cy="-62.07893054102597" r="12.136500822690644" fill="none" stroke-width="0.5" stroke="blue" />
<circle cx="120.50920368777112" cy="-514.9954665019211" r="14.731985856216637" fill="none" stroke-width="0.5" stroke="blue" />
<circle cx="492.5317338953814" cy="-191.72425917989102" r="10.966432648911956" fill="none" stroke-width="0.5" stroke="blue" />
<circle cx="79.8696698289105" cy="-394.01349569011586" r="12.205757429539798" fill="none" stroke-width="0.5" stroke="blue" />
<circle cx="64.0485670927009" cy="-147.63890551052094" r="11.673514623785186" fill="none" stroke-width="0.5" stroke="blue" />
<circle cx="-69.75880966652426" cy="40.029986832022146" r="2.799179473020433" fill="none" stroke-width="0.5" stroke="blue" />
<circle cx="371.64323972917214" cy="56.35928761663214" r="9.72694181097189" fill="none" stroke-width="0.5" stroke="blue" />
<circle cx="420.4497805518151" cy="-54.109817600764806" r="9.458328323806242" fill="none" stroke-width="0.5" stroke="blue" />
<circle cx="397.19506364416486" cy="21.934753309126233" r="10.107717805842801" fill="none" stroke-width="0.5" stroke="blue" />
<circle cx="102.67239657463713" cy="115.46820569745806" r="9.640290408771028" fill="none" stroke-width="0.5" stroke="blue" />
</svg>