<?xml version="1.0" encoding="UTF-8"?>
<svg xmlns="http://www.w3.org/2000/svg" xmlns:xlink="http://www.w3.org/1999/xlink"
     width="500" height="500" viewBox="0 -500 500 500">
<defs>
</defs>
<rect x="0" y="-500" width="500" height="500" fill="#ffffff" />
<circle cx="250.0" cy="-250.0" r="100.0" fill="violet" stroke="none" />
<path d="M434.7558309559736,-264.26092871555466 L429.29860656063147,-272.2021167894518" fill="none" stroke-width="10" stroke="#ff0000" stroke-linecap="round" />
<path d="M696.3782620582426,-56.71072146802251 L693.6977165977936,-59.49391820651218" fill="none" stroke-width="10" stroke="#00ff00" stroke-linecap="round" />
<path d="M524.0680394725109,86.05461850599382 L509.078286658366,88.18103623698511" fill="none" stroke-width="10" stroke="#ff0000" stroke-linecap="round" />
<path d="M639.0431995108016,-302.1020320391614 L655.1239372385128,-299.04484659791467" fill="none" stroke-width="10" stroke="#00ff00" stroke-linecap="round" />
<path d="M-215.6047448732588,-46.6379891370667 L-205.7755131346995,-67.9289164119504" fill="none" stroke-width="10" stroke="#00ff00" stroke-linecap="round" />
<path d="M94.59802955203902,-535.5319937510408 L104.17939440566232,-534.6598823159545" fill="none" stroke-width="10" stroke="#00ff00" stroke-linecap="round" />
<path d="M522.4950006240065,134.0892141815115 L507.6869356175785,137.76152012737091" fill="none" stroke-width="10" stroke="#00ff00" stroke-linecap="round" />
<path d="M668.2480571299344,-688.4910708289735 L657.1662934317736,-690.9776550024802" fill="none" stroke-width="10" stroke="#ff0000" stroke-linecap="round" />
<path d="M591.6537440589443,-169.66980875214978 L608.122566550838,-170.0258003753452" fill="none" stroke-width="10" stroke="#00ff00" stroke-linecap="round" />
<path d="M405.1082534090038,-156.8677509694207 L395.0437444173633,-163.63374582010667" fill="none" stroke-width="10" stroke="#ff0000" stroke-linecap="round" />
<circle cx="-240.75901453524162" cy="-645.0301484248059" r="18.54484548060694" fill="#00ff00" stroke="none" />
<circle cx="935.0981577598521" cy="-559.7770866156745" r="36.94842323492873" fill="#ff0000" stroke="none" />
<path d="M568.2594558061744,-463.10123513968426 L565.2332311077022,-483.39414023015405" fill="none" stroke-width="10" stroke="#00ff00" stroke-linecap="round" />
<path d="M388.5664246085256,-271.74830021553834 L383.5954552193206,-289.1813486189934" fill="none" stroke-width="10" stroke="#00ff00" stroke-linecap="round" />
<path d="M668.2945974286663,-644.9848868611471 L661.0327346332914,-659.8682894803586" fill="none" stroke-width="10" stroke="#ff0000" stroke-linecap="round" />
<path d="M-109.80716560360561,-87.75212124604728 L-107.04183113250774,-99.62198968645016" fill="none" stroke-width="10" stroke="#00ff00" stroke-linecap="round" />
<circle cx="379.1787310601314" cy="-189.54828948446067" r="11.225687060641208" fill="#ff0000" stroke="none" />
<path d="M125.16492229826403,-540.4051055795902 L113.87724165444284,-542.4111417985074" fill="none" stroke-width="10" stroke="#00ff00" stroke-linecap="round" />
<path d="M-4.15214881072979,-73.25169611972123 L18.393498909022373,-61.83926327072126" fill="none" stroke-width="10" stroke="#00ff00" stroke-linecap="round" />
<path d="M12.419793920463402,33.54792943399655 L-7.573414055063868,22.815777672865703" fill="none" stroke-width="10" stroke="#00ff00" stroke-linecap="round" />
<path d="M-58.724425182599,-11.0784563845222 L-49.08373841202449,-10.692413387311449" fill="none" stroke-width="10" stroke="#00ff00" stroke-linecap="round" />
<path d="M406.5108827925986,-452.1767974566364 L412.2645726780188,-440.7749946710189" fill="none" stroke-width="10" stroke="#00ff00" stroke-linecap="round" />
<path d="M-149.97582877613252,-622.8704211768674 L-159.02551644590147,-609.5504802538076" fill="none" stroke-width="10" stroke="#00ff00" stroke-linecap="round" />
<path d="M283.5912067535579,-346.8480263347915 L289.46465677885965,-363.77955008126486" fill="none" stroke-width="10" stroke="#ff0000" stroke-linecap="round" />
<path d="M950.3420684897085,-139.63135226472554 L973.8901694666685,-118.28833690483728" fill="none" stroke-width="10" stroke="#ff0000" stroke-linecap="round" />
<path d="M261.95416119036065,-374.73254256005583 L249.45415447979568,-364.7082657000111" fill="none" stroke-width="10" stroke="#ff0000" stroke-linecap="round" />
<circle cx="-130.25192593515507" cy="-417.53592137933714" r="14.478975156781315" fill="#ff0000" stroke="none" />
<path d="M428.85900319339737,-632.3205893381516 L433.76387092376905,-642.910758571952" fill="none" stroke-width="10" stroke="#00ff00" stroke-linecap="round" />
<path d="M-130.32509676124786,-650.704350669399 L-120.82010339512587,-658.3471376282142" fill="none" stroke-width="10" stroke="#00ff00" stroke-linecap="round" />
<path d="M347.1478954493878,-439.66762153457034 L335.43627975468956,-429.22059029805774" fill="none" stroke-width="10" stroke="#ff0000" stroke-linecap="round" />
<circle cx="516.4198464120778" cy="-591.0531261609865" r="21.608075221106237" fill="#ff0000" stroke="none" />
<circle cx="679.8427395306526" cy="100.57438060048926" r="9.154685947190966" fill="#00ff00" stroke="none" />
<path d="M446.3169421322213,-592.3096976586462 L457.74215155483955,-580.6409477407788" fill="none" stroke-width="10" stroke="#00ff00" stroke-linecap="round" />
<circle cx="512.1356116251528" cy="-228.56884037934876" r="15.291601491709553" fill="#ff0000" stroke="none" />
<path d="M488.3817782714058,-95.19697190251189 L483.3690880572094,-92.29058721038055" fill="none" stroke-width="10" stroke="#ff0000" stroke-linecap="round" />
<path d="M150.4362980567129,-616.4292518943253 L129.7319285793349,-624.2951018295382" fill="none" stroke-width="10" stroke="#ff0000" stroke-linecap="round" />
<path d="M534.6059203301771,-346.70957947934556 L549.8279758831312,-348.75290980987893" fill="none" stroke-width="10" stroke="#00ff00" stroke-linecap="round" />
<circle cx="511.72302443766006" cy="-363.6542597698153" r="7.175322104030723" fill="#ff0000" stroke="none" />
<path d="M691.6172197610416,68.2859998037359 L684.2842644761665,61.917012173016445" fill="none" stroke-width="10" stroke="#ff0000" stroke-linecap="round" />
<path d="M379.14255575361415,-600.1450958496903 L388.2222330961768,-602.172463890241" fill="none" stroke-width="10" stroke="#ff0000" stroke-linecap="round" />
<path d="M194.95051646881396,-679.0251221319996 L175.20629690018873,-670.5634559179914" fill="none" stroke-width="10" stroke="#00ff00" stroke-linecap="round" />
<path d="M483.8752470828456,-174.33351389298684 L490.8124060723694,-187.29786956455308" fill="none" stroke-width="10" stroke="#ff0000" stroke-linecap="round" />
<circle cx="207.9728249514405" cy="-537.3331656538362" r="18.115677439628737" fill="#ff0000" stroke="none" />
<path d="M495.7603801833331,-332.9973444714617 L499.8030555964447,-344.85605386635643" fill="none" stroke-width="10" stroke="#00ff00" stroke-linecap="round" />
<circle cx="592.7908310130593" cy="-628.8660835691719" r="10.876182603480636" fill="#00ff00" stroke="none" />
<path d="M325.3948341192668,-75.4633062795447 L324.4080720964231,-65.67501346741828" fill="none" stroke-width="10" stroke="#ff0000" stroke-linecap="round" />
<path d="M141.08556844371486,175.99324490035642 L153.78102958073094,164.810130170968" fill="none" stroke-width="10" stroke="#ff0000" stroke-linecap="round" />
<path d="M447.46037185394806,-8.369798539391837 L437.4535721125248,-12.587595857313477" fill="none" stroke-width="10" stroke="#ff0000" stroke-linecap="round" />
<path d="M484.8751124914373,-15.890267233185504 L475.42605367843777,-15.866471267988492" fill="none" stroke-width="10" stroke="#00ff00" stroke-linecap="round" />
<path d="M623.3132913088792,46.50966720474878 L619.4020489795839,53.735237672974456" fill="none" stroke-width="10" stroke="#ff0000" stroke-linecap="round" />
<path d="M410.32750056912533,-74.30674689510762 L415.0573134710955,-77.88058037729901" fill="none" stroke-width="10" stroke="#00ff00" stroke-linecap="round" />
<path d="M541.4004046128509,-497.55302679063067 L534.3821455850541,-511.77391213482724" fill="none" stroke-width="10" stroke="#00ff00" stroke-linecap="round" />
<path d="M567.6171236264396,-574.8569428556539 L591.3201365886666,-588.227293902186" fill="none" stroke-width="10" stroke="#ff0000" stroke-linecap="round" />
<path d="M474.51898636183523,-640.933738360026 L488.4004821397691,-649.8792837777441" fill="none" stroke-width="10" stroke="#ff0000" stroke-linecap="round" />
<path d="M-99.75075495627215,181.6076028772109 L-100.54411463350274,179.2214515353332" fill="none" stroke-width="10" stroke="#ff0000" stroke-linecap="round" />
<path d="M490.2955032070853,-486.2871682916266 L498.5150011750355,-500.0820239211796" fill="none" stroke-width="10" stroke="#ff0000" stroke-linecap="round" />
<path d="M406.15637124942185,-133.6425083191304 L395.1048697443681,-133.91731508109126" fill="none" stroke-width="10" stroke="#00ff00" stroke-linecap="round" />
<path d="M-131.61849589251372,-315.3848742701509 L-108.94441479880311,-314.33588570081434" fill="none" stroke-width="10" stroke="#00ff00" stroke-linecap="round" />
<path d="M318.6873819217295,-476.870241583097 L333.49163127913073,-493.3012676588064" fill="none" stroke-width="10" stroke="#00ff00" stroke-linecap="round" />
<path d="M171.07898002693238,-555.517123003473 L175.76590485499284,-574.247282678261" fill="none" stroke-width="10" stroke="#ff0000" stroke-linecap="round" />
<path d="M419.00510020694645,2178.5985724352036 L409.5159982716918,2233.1808435549756" fill="none" stroke-width="10" stroke="#ff0000" stroke-linecap="round" />
<path d="M-8.211350406006819,138.00310770769764 L-12.416267944054189,152.02709145294196" fill="none" stroke-width="10" stroke="#ff0000" stroke-linecap="round" />
<circle cx="424.1842613833015" cy="-80.3069702483129" r="4.2836497869073655" fill="#ff0000" stroke="none" />
<path d="M459.65599013696806,-334.13728685429993 L467.2039924757099,-322.5929621210563" fill="none" stroke-width="10" stroke="#00ff00" stroke-linecap="round" />
<path d="M295.34448126297116,-653.9294462576485 L309.44025549383144,-645.888768434955" fill="none" stroke-width="10" stroke="#00ff00" stroke-linecap="round" />
<path d="M500.2902901774984,-78.54965529585152 L514.4720269937577,-77.97261954885435" fill="none" stroke-width="10" stroke="#ff0000" stroke-linecap="round" />
<path d="M430.14040711069157,-102.28787765818701 L426.8028768693939,-98.29097110837169" fill="none" stroke-width="10" stroke="#00ff00" stroke-linecap="round" />
<path d="M52.113125394962154,100.09552796664319 L45.09680155283043,112.36787008085693" fill="none" stroke-width="10" stroke="#ff0000" stroke-linecap="round" />
<path d="M548.1172156938854,-534.1250264480728 L566.4724132379016,-534.7314039459532" fill="none" stroke-width="10" stroke="#ff0000" stroke-linecap="round" />
<path d="M313.8355711737015,-797.104588563208 L326.32832398118296,-778.8615285185089" fill="none" stroke-width="10" stroke="#ff0000" stroke-linecap="round" />
<path d="M-162.5485250658051,-267.4043693948095 L-151.68669098404322,-283.8695421589978" fill="none" stroke-width="10" stroke="#ff0000" stroke-linecap="round" />
<path d="M408.5865662588127,-468.0207033417061 L410.3732934012386,-483.7383653810078" fill="none" stroke-width="10" stroke="#ff0000" stroke-linecap="round" />
<path d="M610.4027140977188,17.385676767564703 L594.4823042893058,23.117422171585932" fill="none" stroke-width="10" stroke="#00ff00" stroke-linecap="round" />
<path d="M474.3805869679984,-550.9238795535804 L457.5160103560181,-557.5274634560761" fill="none" stroke-width="10" stroke="#ff0000" stroke-linecap="round" />
<path d="M-171.31654912427837,-599.9956293939128 L-177.36385867846414,-587.6191991016162" fill="none" stroke-width="10" stroke="#ff0000" stroke-linecap="round" />
<path d="M565.0763860922469,86.5550860756744 L566.3288945080143,74.14383069955743" fill="none" stroke-width="10" stroke="#ff0000" stroke-linecap="round" />
<path d="M93.53342927367932,-581.7991671973756 L89.11506719519956,-565.9213789954914" fill="none" stroke-width="10" stroke="#ff0000" stroke-linecap="round" />
<path d="M-77.07074588897518,-243.06258520441202 L-101.21343717140056,-246.02021602340488" fill="none" stroke-width="10" stroke="#ff0000" stroke-linecap="round" />
<path d="M54.07052599028627,188.43643359727537 L63.29643954520471,174.64629362005851" fill="none" stroke-width="10" stroke="#00ff00" stroke-linecap="round" />
<circle cx="-346.11513688151535" cy="-287.56381295726527" r="27.027522828527914" fill="#ff0000" stroke="none" />
<path d="M588.0146333226021,188.06382321116243 L563.7575233552242,192.54261088711695" fill="none" stroke-width="10" stroke="#00ff00" stroke-linecap="round" />
<path d="M111.04984324980757,-42.10030583152339 L131.96657801299276,-72.63944629642795" fill="none" stroke-width="10" stroke="#00ff00" stroke-linecap="round" />
<path d="M-85.37800723028047,-454.55856935517346 L-69.22490196297919,-447.33178589816833" fill="none" stroke-width="10" stroke="#00ff00" stroke-linecap="round" />
<circle cx="-142.03147855660407" cy="181.30651913152835" r="13.853514799546689" fill="#ff0000" stroke="none" />
<circle cx="152.2176337314742" cy="-181.1389700854906" r="16.974559343670084" fill="#00ff00" stroke="none" />
<path d="M543.9784631964327,-323.32002024137324 L553.8213220138367,-310.8674138025887" fill="none" stroke-width="10" stroke="#ff0000" stroke-linecap="round" />
<circle cx="420.8743628933134" cy="184.01898743340777" r="21.711639668431594" fill="#00ff00" stroke="none" />
<path d="M399.8822017767725,-320.37861799292637 L405.637689229975,-303.8642136517665" fill="none" stroke-width="10" stroke="#00ff00" stroke-linecap="round" />
<path d="M327.4579924473812,5.476245084215375 L333.05187594073027,-6.652017980482125" fill="none" stroke-width="10" stroke="#00ff00" stroke-linecap="round" />
<path d="M482.2206461966827,-58.12849288241295 L482.1948721827478,-70.52812317736439" fill="none" stroke-width="10" stroke="#ff0000" stroke-linecap="round" />
<circle cx="463.98272551020045" cy="-362.5545925046073" r="8.128672716286575" fill="#ff0000" stroke="none" />
<path d="M407.55835150280035,-47.14234706619986 L407.9735928152731,-54.060943978327956" fill="none" stroke-width="10" stroke="#00ff00" stroke-linecap="round" />
<path d="M331.15370715074107,162.60035695593137 L323.41544798732406,170.18182625260323" fill="none" stroke-width="10" stroke="#00ff00" stroke-linecap="round" />
<circle cx="-89.4665734456662" cy="144.13620388575396" r="18.48309779725296" fill="#ff0000" stroke="none" />
<path d="M-197.8664809120332,153.71220792070562 L-192.87170987513056,152.98213014830165" fill="none" stroke-width="10" stroke="#00ff00" stroke-linecap="round" />
<path d="M-80.69131043516103,-659.4845577561916 L-87.71207766636333,-668.7519846215446" fill="none" stroke-width="10" stroke="#ff0000" stroke-linecap="round" />
<path d="M547.998335923807,56.03826475973338 L561.4698643715552,48.40744635877314" fill="none" stroke-width="10" stroke="#ff0000" stroke-linecap="round" />
<path d="M7.349431851751423,-258.68680685752304 L31.883714277982804,-243.902236126924" fill="none" stroke-width="10" stroke="#ff0000" stroke-linecap="round" />
<path d="M-67.07057281280503,-417.13081952071843 L-52.01331632741906,-412.51061562675187" fill="none" stroke-width="10" stroke="#ff0000" stroke-linecap="round" />
<circle cx="384.881839825826" cy="-74.23473532934783" r="8.279495656972285" fill="#00ff00" stroke="none" />
<circle cx="-121.86034354502573" cy="-623.0926278290514" r="14.812898989438338" fill="#00ff00" stroke="none" />
<path d="M351.75899213304564,-606.7145647883748 L355.35832397814505,-618.8724154226343" fill="none" stroke-width="10" stroke="#00ff00" stroke-linecap="round" />
<path d="M-70.25601906513565,193.15806923584498 L-70.26918873951423,183.90786194754986" fill="none" stroke-width="10" stroke="#ff0000" stroke-linecap="round" />
<path d="M30.927581814089148,238.88517208946695 L5.236209101772648,238.08625381882356" fill="none" stroke-width="10" stroke="#ff0000" stroke-linecap="round" />
<path d="M-101.24479382703758,-567.8595808618439 L-105.22481367938988,-593.2923731754852" fill="none" stroke-width="10" stroke="#00ff00" stroke-linecap="round" />
<path d="M649.8576927943972,49.78024614184125 L657.8237750059207,53.12381824090292" fill="none" stroke-width="10" stroke="#ff0000" stroke-linecap="round" />
<path d="M443.7507269073533,-459.51159079916926 L431.86458673622406,-451.5289631209064" fill="none" stroke-width="10" stroke="#00ff00" stroke-linecap="round" />
<path d="M477.54331828363394,99.12703600659856 L480.52121034424556,117.30481652101" fill="none" stroke-width="10" stroke="#00ff00" stroke-linecap="round" />
<circle cx="-129.32232680554807" cy="61.34014959884155" r="13.209598265084646" fill="#ff0000" stroke="none" />
<circle cx="314.9813431460213" cy="-25.92083431236847" r="9.668081995328539" fill="#ff0000" stroke="none" />
<circle cx="665.7282115210407" cy="127.39687344522716" r="13.466773362676793" fill="#00ff00" stroke="none" />
<circle cx="-34.663731885298596" cy="-519.4002279361043" r="10.671552912394471" fill="#ff0000" stroke="none" />
<circle cx="386.51015845314964" cy="116.21688713907622" r="14.611785851556915" fill="#ff0000" stroke="none" />
<circle cx="20.922624340495194" cy="-657.5231144246977" r="13.146623691916906" fill="#ff0000" stroke="none" />
<path d="M605.6748286233786,-77.95750427758722 L602.3055216922609,-63.01650354172186" fill="none" stroke-width="10" stroke="#00ff00" stroke-linecap="round" />
<path d="M328.6496291218594,-558.2389667648038 L318.93342433850154,-563.5218731549152" fill="none" stroke-width="10" stroke="#00ff00" stroke-linecap="round" />
<path d="M524.2666561003468,45.35902615760549 L514.7811772210657,60.536612804395666" fill="none" stroke-width="10" stroke="#ff0000" stroke-linecap="round" />
<path d="M245.2636391050097,-132.2910217648382 L233.31600060955117,-111.49961075609342" fill="none" stroke-width="10" stroke="#ff0000" stroke-linecap="round" />
<path d="M421.03549722256594,-213.7645599721424 L415.974187380475,-224.87139979953375" fill="none" stroke-width="10" stroke="#00ff00" stroke-linecap="round" />
<path d="M65.85737615113892,-541.0768898091279 L75.32290005661392,-551.1902328867378" fill="none" stroke-width="10" stroke="#00ff00" stroke-linecap="round" />
<path d="M-188.0803343123372,-129.62917894379876 L-210.30733254983934,-121.57605801649024" fill="none" stroke-width="10" stroke="#00ff00" stroke-linecap="round" />
<path d="M43.212349963407455,-630.5139651665869 L30.054322526017398,-621.8581147231247" fill="none" stroke-width="10" stroke="#00ff00" stroke-linecap="round" />
<circle cx="255.66031203682803" cy="-594.6668082629526" r="13.228603380839264" fill="#ff0000" stroke="none" />
<circle cx="-29.233410658278224" cy="-46.9167032755916" r="10.884633097250305" fill="#ff0000" stroke="none" />
<path d="M165.81169181201088,140.11683317672998 L178.0092880957031,148.8235674033325" fill="none" stroke-width="10" stroke="#00ff00" stroke-linecap="round" />
<path d="M291.43528447768557,-840.6350328041916 L280.5742544829713,-853.2790909435499" fill="none" stroke-width="10" stroke="#00ff00" stroke-linecap="round" />
<path d="M40.66791694883911,52.58538688144511 L37.571558683631174,72.02066288288657" fill="none" stroke-width="10" stroke="#00ff00" stroke-linecap="round" />
<path d="M598.6184610978544,-358.9250493172614 L587.9859091164504,-348.5709124577706" fill="none" stroke-width="10" stroke="#ff0000" stroke-linecap="round" />
<path d="M-59.23246000909335,-191.39411862001515 L-61.74227256147538,-208.5407088021084" fill="none" stroke-width="10" stroke="#ff0000" stroke-linecap="round" />
<path d="M-132.06626526441394,-116.29118402473397 L-139.72058462550925,-110.1892459653875" fill="none" stroke-width="10" stroke="#00ff00" stroke-linecap="round" />
<circle cx="259.28342466888614" cy="-24.842539973667563" r="12.387915897437809" fill="#00ff00" stroke="none" />
<path d="M482.7973130314889,-388.3441101781803 L482.5486940772795,-376.1260568667896" fill="none" stroke-width="10" stroke="#ff0000" stroke-linecap="round" />
<path d="M517.1776098098323,-734.0036120432551 L527.5524512222992,-729.8001544199261" fill="none" stroke-width="10" stroke="#ff0000" stroke-linecap="round" />
<path d="M475.6462955914173,-351.8150384646583 L481.994703448785,-355.5776173584459" fill="none" stroke-width="10" stroke="#ff0000" stroke-linecap="round" />
<path d="M-33.43527744619744,-596.2286802005887 L-54.64035465105233,-587.0214048213463" fill="none" stroke-width="10" stroke="#00ff00" stroke-linecap="round" />
<path d="M563.8647725633452,24.766853995319067 L555.3402168162916,14.084281432126375" fill="none" stroke-width="10" stroke="#ff0000" stroke-linecap="round" />
<path d="M325.90369168586847,-95.26933675714886 L337.39549783819194,-89.35182906385145" fill="none" stroke-width="10" stroke="#00ff00" stroke-linecap="round" />
<path d="M-186.7287651721926,-695.1536290987143 L-205.45724930492452,-690.6553583937539" fill="none" stroke-width="10" stroke="#ff0000" stroke-linecap="round" />
<path d="M205.19961438104053,-584.9788785428387 L215.62612721107485,-580.9657670288375" fill="none" stroke-width="10" stroke="#00ff00" stroke-linecap="round" />
<circle cx="439.08996529924434" cy="-234.8289438752262" r="10.892063017443089" fill="#00ff00" stroke="none" />
<circle cx="377.67541921662" cy="48.07510722617521" r="17.793645169850702" fill="#ff0000" stroke="none" />
<path d="M396.4570855089679,-352.3992571378101 L412.8492948696788,-358.2969986069682" fill="none" stroke-width="10" stroke="#ff0000" stroke-linecap="round" />
<circle cx="-71.26991868097208" cy="3.0441097983760685" r="10.12576513345188" fill="#00ff00" stroke="none" />
<path d="M403.53482602909577,-698.970907999214 L415.72165354855343,-693.8625965934581" fill="none" stroke-width="10" stroke="#ff0000" stroke-linecap="round" />
<path d="M326.25201108623315,-377.5337784038396 L328.27220586043705,-400.73816954356124" fill="none" stroke-width="10" stroke="#00ff00" stroke-linecap="round" />
<path d="M592.201183247884,117.36137020559372 L607.7433272544298,126.8568259922721" fill="none" stroke-width="10" stroke="#00ff00" stroke-linecap="round" />
<path d="M224.27173954826944,86.0119830049049 L208.0739089158475,96.81581149491899" fill="none" stroke-width="10" stroke="#00ff00" stroke-linecap="round" />
<path d="M433.3489217841293,-45.752340785161714 L441.0360446005095,-36.119476058166455" fill="none" stroke-width="10" stroke="#00ff00" stroke-linecap="round" />
<circle cx="-238.44323578109467" cy="9.182695375632198" r="12.661804714439961" fill="#00ff00" stroke="none" />
<circle cx="-172.77491985523665" cy="-16.24917245029625" r="12.747097468364895" fill="#ff0000" stroke="none" />
<path d="M-175.46831553836856,-535.5414421324015 L-157.67130272178122,-529.3991007376632" fill="none" stroke-width="10" stroke="#00ff00" stroke-linecap="round" />
<circle cx="484.97038733630626" cy="-466.6779493719486" r="4.762991480449688" fill="#ff0000" stroke="none" />
<circle cx="-131.64445689852639" cy="-213.58390044300447" r="22.514254295433272" fill="#ff0000" stroke="none" />
<path d="M470.05964585547014,-500.3685885611375 L453.5505902843703,-504.2619990389419" fill="none" stroke-width="10" stroke="#00ff00" stroke-linecap="round" />
<path d="M659.0817721470464,-17.462824835398244 L641.0205341346727,1.2008515629822816" fill="none" stroke-width="10" stroke="#00ff00" stroke-linecap="round" />
<path d="M-175.16983012433028,135.52862303356093 L-182.89087885191788,136.72803381713732" fill="none" stroke-width="10" stroke="#00ff00" stroke-linecap="round" />
<path d="M-42.08575679824857,-394.4920951838359 L-44.787378067429245,-383.75954184297" fill="none" stroke-width="10" stroke="#00ff00" stroke-linecap="round" />
<circle cx="470.1491567027791" cy="-202.3509381150954" r="9.213560663027843" fill="#00ff00" stroke="none" />
<path d="M367.73188386531143,-93.2168155599127 L377.9844673415941,-91.97256833294493" fill="none" stroke-width="10" stroke="#ff0000" stroke-linecap="round" />
<circle cx="472.28504572287596" cy="191.6220898960323" r="15.6903443830647" fill="#ff0000" stroke="none" />
<path d="M5.517848369184101,-188.62302936297561 L27.566852257203497,-197.3229602141223" fill="none" stroke-width="10" stroke="#ff0000" stroke-linecap="round" />
<path d="M450.76210906157536,-169.59933631597156 L462.9225460444029,-160.12053488135422" fill="none" stroke-width="10" stroke="#00ff00" stroke-linecap="round" />
<path d="M96.36620282907528,158.41226292431546 L86.39378373751562,166.58713002266748" fill="none" stroke-width="10" stroke="#ff0000" stroke-linecap="round" />
<circle cx="131.89554483023613" cy="-669.7923523775943" r="14.734231908244263" fill="#00ff00" stroke="none" />
<path d="M-74.99539696625719,28.23864979610035 L-71.22474799703022,46.67496169346008" fill="none" stroke-width="10" stroke="#ff0000" stroke-linecap="round" />
<path d="M635.6527531467007,-101.69979848588012 L629.2728321279861,-124.12173357580045" fill="none" stroke-width="10" stroke="#ff0000" stroke-linecap="round" />
<path d="M431.00975248673575,52.77677264809823 L414.1207001930734,74.81676958354478" fill="none" stroke-width="10" stroke="#ff0000" stroke-linecap="round" />
<circle cx="-162.4914640705209" cy="60.45040604790769" r="15.040143626724227" fill="#ff0000" stroke="none" />
<path d="M-61.74990052711658,-694.9806275073387 L-74.37555741290915,-696.6297861521655" fill="none" stroke-width="10" stroke="#00ff00" stroke-linecap="round" />
<circle cx="502.1722305229491" cy="-34.90689898386086" r="16.977774411757427" fill="#00ff00" stroke="none" />
<path d="M116.05785850735687,-284.57923823505865 L141.87180050070273,-283.58239368959744" fill="none" stroke-width="10" stroke="#00ff00" stroke-linecap="round" />
<circle cx="43.0659824985418" cy="142.68768352888364" r="11.962252126723987" fill="#00ff00" stroke="none" />
<path d="M460.1099617672087,-422.7404592458588 L447.67518399831044,-420.5986250604431" fill="none" stroke-width="10" stroke="#ff0000" stroke-linecap="round" />
<path d="M224.17366112051943,-75.16017728247971 L216.52379372933558,-53.640220390756866" fill="none" stroke-width="10" stroke="#ff0000" stroke-linecap="round" />
<path d="M583.8481626404579,-414.708213290988 L594.9397851367903,-406.01075186170647" fill="none" stroke-width="10" stroke="#00ff00" stroke-linecap="round" />
<path d="M650.0552812805105,-524.1962642357762 L633.9918121926753,-513.4321692709948" fill="none" stroke-width="10" stroke="#ff0000" stroke-linecap="round" />
<path d="M363.1761174405945,-315.7152643426866 L346.5226911608238,-309.15479176161045" fill="none" stroke-width="10" stroke="#ff0000" stroke-linecap="round" />
<path d="M383.09813265105214,-248.0866363233295 L392.6071858702949,-246.96238774705245" fill="none" stroke-width="10" stroke="#ff0000" stroke-linecap="round" />
<path d="M651.413465355932,168.02656327679952 L655.2624192935001,163.1192657034451" fill="none" stroke-width="10" stroke="#00ff00" stroke-linecap="round" />
<path d="M587.280379017212,-99.12160976556945 L588.7960771954885,-116.25394190225319" fill="none" stroke-width="10" stroke="#00ff00" stroke-linecap="round" />
<path d="M265.7508102013416,-622.1516593108679 L281.7127765752927,-633.2013822125194" fill="none" stroke-width="10" stroke="#ff0000" stroke-linecap="round" />
<path d="M556.4269926277343,-47.8481635986926 L547.3383224797766,-66.12140674734866" fill="none" stroke-width="10" stroke="#ff0000" stroke-linecap="round" />
<path d="M-107.94205844659272,-438.7721003726025 L-99.25156227216132,-428.20969116383833" fill="none" stroke-width="10" stroke="#00ff00" stroke-linecap="round" />
<path d="M-141.05671473658143,-87.37722571436431 L-134.76535859500072,-76.44075149375676" fill="none" stroke-width="10" stroke="#00ff00" stroke-linecap="round" />
<path d="M221.58828172934054,-447.61797764253527 L215.41713609488068,-480.79707780014706" fill="none" stroke-width="10" stroke="#ff0000" stroke-linecap="round" />
<path d="M205.90589701511828,-609.4114037813837 L203.51552781945884,-598.9417997180316" fill="none" stroke-width="10" stroke="#ff0000" stroke-linecap="round" />
<path d="M151.71183777973516,-448.1030318470443 L168.2512797723181,-431.9125571635746" fill="none" stroke-width="10" stroke="#ff0000" stroke-linecap="round" />
<path d="M-45.85906062532258,-33.904187516287756 L-55.02275722066309,-36.890346165080686" fill="none" stroke-width="10" stroke="#ff0000" stroke-linecap="round" />
<path d="M590.4905200081333,86.92647133546642 L582.6550760594057,93.87934260616844" fill="none" stroke-width="10" stroke="#00ff00" stroke-linecap="round" />
<path d="M570.4608609644257,-402.0205713645419 L559.8393431910813,-394.87510822862595" fill="none" stroke-width="10" stroke="#ff0000" stroke-linecap="round" />
<path d="M486.5037105336189,-265.97513503185166 L496.3519930136386,-254.69806485080372" fill="none" stroke-width="10" stroke="#ff0000" stroke-linecap="round" />
<path d="M487.4097844758495,-724.2771344065843 L503.7882985286798,-719.3778419910989" fill="none" stroke-width="10" stroke="#ff0000" stroke-linecap="round" />
<path d="M643.317633806906,-348.2089228219625 L628.7377040084965,-331.65954481681075" fill="none" stroke-width="10" stroke="#ff0000" stroke-linecap="round" />
<path d="M455.0559656243561,1.1957857341314575 L462.76350279685835,9.80153909136581" fill="none" stroke-width="10" stroke="#00ff00" stroke-linecap="round" />
<path d="M434.65326759872147,-421.8726003924903 L423.57157685674406,-426.0696096379082" fill="none" stroke-width="10" stroke="#ff0000" stroke-linecap="round" />
<circle cx="-1.9664889558080167" cy="-475.6272294384796" r="8.701818930507052" fill="#00ff00" stroke="none" />
<path d="M233.6858220888614,-412.17238455185645 L214.74198311879871,-397.78993879260514" fill="none" stroke-width="10" stroke="#00ff00" stroke-linecap="round" />
<path d="M1023.7264786465081,-204.20409122887432 L1038.8908388547175,-180.60389119579864" fill="none" stroke-width="10" stroke="#ff0000" stroke-linecap="round" />
<path d="M377.96653410575556,-454.79276469033704 L361.24021842551093,-456.80339479669453" fill="none" stroke-width="10" stroke="#ff0000" stroke-linecap="round" />
<path d="M136.49990636552806,86.48459324736305 L122.59867284177524,95.54760683834814" fill="none" stroke-width="10" stroke="#00ff00" stroke-linecap="round" />
<circle cx="535.6167240471435" cy="109.64375071643394" r="11.839244577278558" fill="#00ff00" stroke="none" />
<path d="M306.72079718663196,-604.0741937608361 L328.05389750789,-599.3679329605487" fill="none" stroke-width="10" stroke="#00ff00" stroke-linecap="round" />
<path d="M249.51184268322245,-540.145748978971 L251.51853666818192,-562.7982675875375" fill="none" stroke-width="10" stroke="#00ff00" stroke-linecap="round" />
<path d="M-110.76902951681791,-70.65220397015881 L-107.59153698839476,-53.621520356600925" fill="none" stroke-width="10" stroke="#ff0000" stroke-linecap="round" />
<path d="M645.7043606443813,33.99428272798651 L632.4384558500717,34.460165272356" fill="none" stroke-width="10" stroke="#ff0000" stroke-linecap="round" />
<path d="M345.686942565446,-57.66680890598027 L347.9829683189607,-47.87302059033512" fill="none" stroke-width="10" stroke="#ff0000" stroke-linecap="round" />
<circle cx="579.1496526226329" cy="-330.5275314823101" r="10.704852733243925" fill="#ff0000" stroke="none" />
<circle cx="636.4770891569038" cy="-686.7461672518594" r="10.243202184037562" fill="#ff0000" stroke="none" />
<path d="M-6.952700346210833,121.87377198590748 L-12.572339062147174,110.21857005986396" fill="none" stroke-width="10" stroke="#00ff00" stroke-linecap="round" />
<circle cx="458.264516145126" cy="-622.5988285342696" r="14.161648076012014" fill="#ff0000" stroke="none" />
<path d="M455.8181716265405,-393.3638266505434 L465.48604916122684,-389.365156541433" fill="none" stroke-width="10" stroke="#ff0000" stroke-linecap="round" />
<path d="M292.41449963911504,-79.38602711698123 L284.4732901863747,-69.58982437227981" fill="none" stroke-width="10" stroke="#ff0000" stroke-linecap="round" />
<circle cx="379.12919011946036" cy="-397.89618274042215" r="15.31235759905569" fill="#00ff00" stroke="none" />
<circle cx="-176.4256093267631" cy="106.9032818687433" r="11.810061964859385" fill="#ff0000" stroke="none" />
<path d="M89.90421390520267,-654.4076616482668 L103.35950032148678,-664.6824219578227" fill="none" stroke-width="10" stroke="#ff0000" stroke-linecap="round" />
<path d="M355.4118746111646,-533.5739820683884 L345.8211592825558,-520.6682725545666" fill="none" stroke-width="10" stroke="#00ff00" stroke-linecap="round" />
<circle cx="516.4300702086732" cy="-390.2062060608245" r="12.65810421654421" fill="#00ff00" stroke="none" />
<path d="M372.6739708734395,164.4033617921993 L363.3322717748501,153.22496171460813" fill="none" stroke-width="10" stroke="#ff0000" stroke-linecap="round" />
<path d="M-17.685031533329937,-633.9246378567955 L-11.546791549168912,-653.7475389763684" fill="none" stroke-width="10" stroke="#00ff00" stroke-linecap="round" />
<path d="M225.7284924442417,-622.8670216228387 L233.63349660492682,-640.3680105127563" fill="none" stroke-width="10" stroke="#ff0000" stroke-linecap="round" />
<path d="M388.8393855557149,-50.4598197669588 L381.47229987453596,-39.12940552191074" fill="none" stroke-width="10" stroke="#00ff00" stroke-linecap="round" />
<path d="M483.74372356038646,-145.91316939276314 L472.5538127126461,-137.00524880319395" fill="none" stroke-width="10" stroke="#ff0000" stroke-linecap="round" />
<path d="M235.66621582407026,-0.06455947146015006 L232.39967138559277,-10.146606149809958" fill="none" stroke-width="10" stroke="#00ff00" stroke-linecap="round" />
<path d="M346.3038532614893,-568.7709195748637 L344.2205730493568,-577.2871776077192" fill="none" stroke-width="10" stroke="#ff0000" stroke-linecap="round" />
<path d="M146.07056014590484,-398.2047665354742 L146.95685231624736,-366.69837351729893" fill="none" stroke-width="10" stroke="#00ff00" stroke-linecap="round" />
<path d="M362.4577174731384,-250.34833026432602 L370.84834998340517,-244.0611994839364" fill="none" stroke-width="10" stroke="#00ff00" stroke-linecap="round" />
<path d="M572.9613406647444,-171.16204279835455 L562.2595934959251,-159.23368481873575" fill="none" stroke-width="10" stroke="#ff0000" stroke-linecap="round" />
<path d="M110.69869682348093,-495.5529000500801 L120.40265128467465,-475.9830615077229" fill="none" stroke-width="10" stroke="#00ff00" stroke-linecap="round" />
<path d="M127.25239488556001,179.71718089854335 L125.43562695975919,187.42624289080075" fill="none" stroke-width="10" stroke="#00ff00" stroke-linecap="round" />
<path d="M294.17308525636844,126.08612285245633 L321.8709539127159,121.07334463614552" fill="none" stroke-width="10" stroke="#ff0000" stroke-linecap="round" />
<path d="M549.6643559953577,-380.5248182547221 L538.731649321402,-387.01243451368265" fill="none" stroke-width="10" stroke="#ff0000" stroke-linecap="round" />
<circle cx="-144.413845938815" cy="103.90651272962528" r="14.798538063955581" fill="#ff0000" stroke="none" />
<path d="M196.2336234093131,200.66286721896364 L208.4946555609412,195.8379293562852" fill="none" stroke-width="10" stroke="#ff0000" stroke-linecap="round" />
<path d="M324.88870515212824,80.0395151744183 L344.4737596885777,84.61996201901694" fill="none" stroke-width="10" stroke="#ff0000" stroke-linecap="round" />
<path d="M277.4837410787002,224.14660943116453 L286.53940385070894,203.3843446324969" fill="none" stroke-width="10" stroke="#00ff00" stroke-linecap="round" />
<path d="M501.63894823916075,-422.2457601433376 L495.25373509262334,-414.5182273646781" fill="none" stroke-width="10" stroke="#ff0000" stroke-linecap="round" />
<path d="M627.767470505017,-473.82315924611333 L626.293406039085,-492.90262452123216" fill="none" stroke-width="10" stroke="#ff0000" stroke-linecap="round" />
<circle cx="353.7710005098152" cy="132.24337526429142" r="12.929750172377828" fill="#00ff00" stroke="none" />
<path d="M59.072421135714514,-596.7617534290135 L41.62465797815932,-582.0137949392476" fill="none" stroke-width="10" stroke="#ff0000" stroke-linecap="round" />
<path d="M549.5861817732697,-98.9859070728505 L561.3976721378046,-88.00669862139367" fill="none" stroke-width="10" stroke="#ff0000" stroke-linecap="round" />
<path d="M-41.57725080606599,-271.5734343424844 L-59.889104602811756,-274.04775219578227" fill="none" stroke-width="10" stroke="#ff0000" stroke-linecap="round" />
<path d="M87.6257262253048,-631.4991050174075 L94.74028853224294,-611.8917588527218" fill="none" stroke-width="10" stroke="#00ff00" stroke-linecap="round" />
<path d="M134.06263841630906,-146.9983921433898 L121.10347847754049,-114.01440097183476" fill="none" stroke-width="10" stroke="#00ff00" stroke-linecap="round" />
<path d="M315.6819836967751,199.86168439602082 L331.3715796071944,205.74987587271548" fill="none" stroke-width="10" stroke="#ff0000" stroke-linecap="round" />
<path d="M205.77700833374263,-29.382070516172792 L219.94259430248175,-25.921049105217097" fill="none" stroke-width="10" stroke="#00ff00" stroke-linecap="round" />
<circle cx="25.298198184128502" cy="-326.6537955039885" r="28.282055226799045" fill="#00ff00" stroke="none" />
<path d="M402.2170164553264,-665.7421525674697 L406.48008007740015,-649.6399111214852" fill="none" stroke-width="10" stroke="#00ff00" stroke-linecap="round" />
<path d="M562.6221967382983,-276.5720931718464 L562.5786252088704,-291.43957010128474" fill="none" stroke-width="10" stroke="#00ff00" stroke-linecap="round" />
<path d="M299.0273697471381,-550.7392296563247 L283.2431651945045,-544.9196103828167" fill="none" stroke-width="10" stroke="#00ff00" stroke-linecap="round" />
<path d="M532.5199733886187,-15.584207297797352 L548.72739887438,-2.8218169018586896" fill="none" stroke-width="10" stroke="#ff0000" stroke-linecap="round" />
<path d="M601.1801225005695,-687.3104656454474 L609.3289322510875,-697.5620887292091" fill="none" stroke-width="10" stroke="#00ff00" stroke-linecap="round" />
<circle cx="438.9619645011926" cy="-399.8151644961124" r="8.220566174095639" fill="#ff0000" stroke="none" />
<path d="M-25.83521679337329,-321.2916637032174 L-31.23893675221832,-332.5911892321552" fill="none" stroke-width="10" stroke="#ff0000" stroke-linecap="round" />
<circle cx="444.03888363004774" cy="-363.94734715370345" r="9.852301825264043" fill="#ff0000" stroke="none" />
<circle cx="505.9145682763866" cy="176.07289179949674" r="14.57977261661157" fill="#00ff00" stroke="none" />
<path d="M482.18596486186544,-413.5302537417983 L474.2630512279394,-405.92638998613774" fill="none" stroke-width="10" stroke="#00ff00" stroke-linecap="round" />
<path d="M44.536226929251775,-534.6891617815552 L30.05764724781652,-537.271027286204" fill="none" stroke-width="10" stroke="#ff0000" stroke-linecap="round" />
<path d="M591.4571455751218,-290.1811231092734 L606.8455743205562,-275.13024757338115" fill="none" stroke-width="10" stroke="#ff0000" stroke-linecap="round" />
<path d="M641.1255018733361,-46.14444473171661 L632.8102479917794,-65.00083301448444" fill="none" stroke-width="10" stroke="#ff0000" stroke-linecap="round" />
<circle cx="-76.19478530138312" cy="-32.546373441579796" r="10.252135418500707" fill="#00ff00" stroke="none" />
<circle cx="362.64772128744994" cy="-652.1446758041528" r="12.444248436210826" fill="#ff0000" stroke="none" />
<path d="M467.0067042221129,-288.2888285544106 L475.94429177716347,-283.72525681651484" fill="none" stroke-width="10" stroke="#ff0000" stroke-linecap="round" />
<path d="M573.6407743763391,-243.82328503335935 L576.9402102195244,-214.52921431961096" fill="none" stroke-width="10" stroke="#ff0000" stroke-linecap="round" />
<path d="M711.7550167567233,-153.35099378526436 L735.1506239570833,-149.3422100593917" fill="none" stroke-width="10" stroke="#ff0000" stroke-linecap="round" />
<circle cx="-143.5746588476649" cy="-700.6540047252698" r="16.139680170125246" fill="#00ff00" stroke="none" />
<path d="M-23.31384700411793,-365.09812970399327 L-34.228496884646425,-372.63597334273646" fill="none" stroke-width="10" stroke="#00ff00" stroke-linecap="round" />
<circle cx="435.95317173615183" cy="-528.0594631856737" r="12.630923391253777" fill="#00ff00" stroke="none" />
<path d="M-200.66353298506849,-583.0853883347008 L-192.93184190713012,-582.4506469770255" fill="none" stroke-width="10" stroke="#00ff00" stroke-linecap="round" />
<circle cx="226.47363663332615" cy="167.15691605596353" r="8.517281126603756" fill="#ff0000" stroke="none" />
<path d="M-38.326086338876216,-223.85558489889695 L-25.116597899235398,-237.94341302823474" fill="none" stroke-width="10" stroke="#ff0000" stroke-linecap="round" />
<path d="M300.3707216147038,-415.05367026762804 L292.29932607889805,-439.4051663898045" fill="none" stroke-width="10" stroke="#ff0000" stroke-linecap="round" />
<path d="M4.029256145878883,-497.28535811930755 L-1.104368878520186,-493.23821609309425" fill="none" stroke-width="10" stroke="#00ff00" stroke-linecap="round" />
<path d="M-169.0377644013913,-422.648062083642 L-171.52873503718627,-410.3482854859336" fill="none" stroke-width="10" stroke="#00ff00" stroke-linecap="round" />
<path d="M345.65300928146405,-108.6648404239035 L353.6271541733861,-119.41865085531491" fill="none" stroke-width="10" stroke="#ff0000" stroke-linecap="round" />
<circle cx="23.84412929671342" cy="-111.3279608197657" r="18.845811528654302" fill="#00ff00" stroke="none" />
<path d="M246.48495880214446,-667.1751570505677 L232.3762355745764,-675.6564323151366" fill="none" stroke-width="10" stroke="#ff0000" stroke-linecap="round" />
<path d="M36.137122524339965,-156.02973803281503 L21.7870549094577,-144.57686846298725" fill="none" stroke-width="10" stroke="#00ff00" stroke-linecap="round" />
<path d="M419.9426389191658,119.37394321440918 L408.57182488487035,117.1472949329616" fill="none" stroke-width="10" stroke="#ff0000" stroke-linecap="round" />
<circle cx="366.5848497488749" cy="-421.87057340936417" r="8.881008508628739" fill="#ff0000" stroke="none" />
<path d="M93.99306184191671,57.73440455964247 L107.5946738266253,59.55459989520994" fill="none" stroke-width="10" stroke="#ff0000" stroke-linecap="round" />
<path d="M178.24332530406477,47.70006303363917 L176.25135674925835,29.741456582055896" fill="none" stroke-width="10" stroke="#ff0000" stroke-linecap="round" />
<path d="M192.69190577215508,-106.70390159326077 L191.9509395939529,-127.64207446858086" fill="none" stroke-width="10" stroke="#00ff00" stroke-linecap="round" />
<path d="M-50.49046714666155,107.13872648824464 L-40.338957218291334,123.91745418325254" fill="none" stroke-width="10" stroke="#ff0000" stroke-linecap="round" />
<circle cx="-143.31932397151124" cy="-460.29722613278113" r="12.654573824031099" fill="#00ff00" stroke="none" />
<path d="M416.2488960165565,-24.135497453516056 L409.39094962035256,-20.409959539332245" fill="none" stroke-width="10" stroke="#ff0000" stroke-linecap="round" />
<circle cx="440.26149180980764" cy="-197.88389310834296" r="13.487966366268934" fill="#00ff00" stroke="none" />
<path d="M617.9068935234658,-557.2800029127364 L612.5847581388417,-538.9217597382124" fill="none" stroke-width="10" stroke="#ff0000" stroke-linecap="round" />
<path d="M338.0433616403282,46.28825304137135 L336.2487168297804,27.29817896416737" fill="none" stroke-width="10" stroke="#ff0000" stroke-linecap="round" />
<circle cx="467.3690688603197" cy="-229.75597484784072" r="13.676740203315347" fill="#ff0000" stroke="none" />
<path d="M32.29402839713658,-713.3325302083931 L34.16828968458638,-720.5144959220277" fill="none" stroke-width="10" stroke="#00ff00" stroke-linecap="round" />
<path d="M427.5535981004667,-127.79777259941454 L417.7672391678925,-128.30226260426437" fill="none" stroke-width="10" stroke="#ff0000" stroke-linecap="round" />
<circle cx="404.33736817928076" cy="-96.49157010186715" r="11.0455657414739" fill="#00ff00" stroke="none" />
<path d="M-23.888338311104217,11.129056523638704 L-32.371079336590526,-2.5386941871189315" fill="none" stroke-width="10" stroke="#00ff00" stroke-linecap="round" />
<path d="M13.987262462865557,-698.163064828359 L6.634878369881214,-695.6407033213561" fill="none" stroke-width="10" stroke="#ff0000" stroke-linecap="round" />
<path d="M528.6122965514088,-145.62855812560537 L539.1195193264717,-127.63611623432675" fill="none" stroke-width="10" stroke="#ff0000" stroke-linecap="round" />
<circle cx="374.2189453259224" cy="-585.8604917732043" r="7.59846585142702" fill="#00ff00" stroke="none" />
<circle cx="335.02608334118213" cy="-37.18004488873858" r="8.391843863856586" fill="#00ff00" stroke="none" />
<circle cx="237.7371883237431" cy="136.25471061709908" r="19.291776669531806" fill="#00ff00" stroke="none" />
<path d="M274.05950125896726,-497.9167449592154 L274.2639257813371,-472.25593759016" fill="none" stroke-width="10" stroke="#ff0000" stroke-linecap="round" />
<path d="M517.4018510111199,-654.0634041327955 L506.74041825329186,-656.8403168427373" fill="none" stroke-width="10" stroke="#00ff00" stroke-linecap="round" />
<path d="M346.48784850391183,-557.0664199622988 L350.42964093210924,-548.7570786319227" fill="none" stroke-width="10" stroke="#ff0000" stroke-linecap="round" />
<path d="M407.5528811626784,-411.5152259066085 L399.98243805745045,-422.04271719707845" fill="none" stroke-width="10" stroke="#ff0000" stroke-linecap="round" />
<path d="M68.09904438454946,76.65987147973293 L63.411885759543416,86.77744234553337" fill="none" stroke-width="10" stroke="#00ff00" stroke-linecap="round" />
<path d="M440.99961213610203,-120.69186336465367 L450.1148294429286,-122.55956674984807" fill="none" stroke-width="10" stroke="#ff0000" stroke-linecap="round" />
<path d="M420.19146472620514,-113.2537279028967 L425.3869926591587,-109.17666892784392" fill="none" stroke-width="10" stroke="#ff0000" stroke-linecap="round" />
<path d="M624.101083810726,91.64810232325658 L611.6384016049963,91.66026653062224" fill="none" stroke-width="10" stroke="#00ff00" stroke-linecap="round" />
<path d="M-165.2711265945546,-660.5631030756427 L-152.88263347285343,-654.8991459238154" fill="none" stroke-width="10" stroke="#ff0000" stroke-linecap="round" />
<path d="M-3962.4063892509166,-347.6036684878743 L-3913.1377301365396,-423.97841176148233" fill="none" stroke-width="10" stroke="#ff0000" stroke-linecap="round" />
<circle cx="-98.40053707153383" cy="68.3798815284905" r="15.19722631153192" fill="#ff0000" stroke="none" />
<path d="M-138.5105571632502,-368.7552280860139 L-133.04262534784772,-378.378763416986" fill="none" stroke-width="10" stroke="#00ff00" stroke-linecap="round" />
<path d="M-158.37220528921702,-363.85708221505246 L-159.93658574002677,-376.3232614146938" fill="none" stroke-width="10" stroke="#ff0000" stroke-linecap="round" />
<path d="M646.0801937847899,-420.60107118375595 L634.3665774299118,-442.06786716907504" fill="none" stroke-width="10" stroke="#ff0000" stroke-linecap="round" />
<path d="M418.94766511225725,-603.9695689212681 L406.8019053488883,-615.4792045458872" fill="none" stroke-width="10" stroke="#ff0000" stroke-linecap="round" />
<path d="M265.9508894769705,-1286.1016259913072 L245.82814585530667,-1247.76638791842" fill="none" stroke-width="10" stroke="#00ff00" stroke-linecap="round" />
<path d="M630.6409983128112,-169.03902906955946 L652.3793258162058,-159.58763056586326" fill="none" stroke-width="10" stroke="#00ff00" stroke-linecap="round" />
<path d="M183.8418120047648,124.56982835507891 L196.4177850306707,115.63807628076918" fill="none" stroke-width="10" stroke="#00ff00" stroke-linecap="round" />
<path d="M560.7362749723391,-638.0172141732675 L568.9346947728479,-625.9119223374252" fill="none" stroke-width="10" stroke="#ff0000" stroke-linecap="round" />
<path d="M194.0053845123711,2.9134778665151058 L203.1894901492159,17.65435555700183" fill="none" stroke-width="10" stroke="#ff0000" stroke-linecap="round" />
<path d="M276.70902667534176,-3.2177767325434328 L268.47516773181985,8.025809369698203" fill="none" stroke-width="10" stroke="#00ff00" stroke-linecap="round" />
<path d="M374.67606270172536,-498.65071901052727 L368.8413132700283,-482.2298386535755" fill="none" stroke-width="10" stroke="#ff0000" stroke-linecap="round" />
<path d="M146.50665373606407,-696.5133849733783 L135.1318093209192,-700.3549180005917" fill="none" stroke-width="10" stroke="#ff0000" stroke-linecap="round" />
<path d="M-100.87923341819771,-280.12527263817196 L-94.78806822965646,-291.77997771250034" fill="none" stroke-width="10" stroke="#00ff00" stroke-linecap="round" />
<path d="M626.0949428179314,-660.4681617088869 L620.5201724723854,-668.4420054644004" fill="none" stroke-width="10" stroke="#00ff00" stroke-linecap="round" />
<path d="M62.67776514510462,-748.9180622138693 L58.19902488914812,-731.9691868493408" fill="none" stroke-width="10" stroke="#00ff00" stroke-linecap="round" />
<path d="M318.3974446110294,-134.49708031327503 L332.26529332064763,-131.9159639453009" fill="none" stroke-width="10" stroke="#00ff00" stroke-linecap="round" />
<path d="M80.94578226067648,134.63903416538332 L70.62477187425948,124.56287981744711" fill="none" stroke-width="10" stroke="#00ff00" stroke-linecap="round" />
<path d="M60.67088213645145,23.709188837746886 L77.21410598778299,-6.167230542251798" fill="none" stroke-width="10" stroke="#ff0000" stroke-linecap="round" />
<path d="M411.79890924980134,-34.20829834654596 L413.1777555448091,-40.44031545064827" fill="none" stroke-width="10" stroke="#00ff00" stroke-linecap="round" />
<path d="M-119.1612315693837,-518.1408619811274 L-101.95899715339623,-534.9663737996822" fill="none" stroke-width="10" stroke="#00ff00" stroke-linecap="round" />
<path d="M523.8799618103582,-298.21571360940595 L514.4158036342134,-309.9817730475892" fill="none" stroke-width="10" stroke="#ff0000" stroke-linecap="round" />
<circle cx="502.3537127062135" cy="-463.6956237748502" r="9.428884343874515" fill="#00ff00" stroke="none" />
<path d="M-78.55034760433708,-324.24811215490666 L-80.97165502970974,-343.06140571995536" fill="none" stroke-width="10" stroke="#00ff00" stroke-linecap="round" />
<path d="M232.6356075880483,17.32121426259023 L244.52659587148506,16.574107548559837" fill="none" stroke-width="10" stroke="#00ff00" stroke-linecap="round" />
<circle cx="181.8683233312756" cy="-624.6105756160906" r="16.140553323124433" fill="#ff0000" stroke="none" />
<circle cx="423.12544902899936" cy="-383.5613092697699" r="11.903554588916908" fill="#ff0000" stroke="none" />
<path d="M383.63512594927766,-108.9135843226223 L377.3593818645074,-118.64399785902214" fill="none" stroke-width="10" stroke="#00ff00" stroke-linecap="round" />
<path d="M171.99730552216923,-513.0663514482085 L147.7410563602715,-514.2092380089248" fill="none" stroke-width="10" stroke="#00ff00" stroke-linecap="round" />
<path d="M386.77451106810037,-623.5666564388472 L383.6510617408587,-636.6299086291694" fill="none" stroke-width="10" stroke="#ff0000" stroke-linecap="round" />
<path d="M256.7228960331287,68.56151201973462 L263.19492970879253,91.98009807432034" fill="none" stroke-width="10" stroke="#ff0000" stroke-linecap="round" />
<path d="M230.14363715438367,200.38113030105728 L236.97109963473048,196.55361231978512" fill="none" stroke-width="10" stroke="#ff0000" stroke-linecap="round" />
<path d="M-106.08377044595461,-675.1156462632488 L-115.47870524420358,-670.0395218991664" fill="none" stroke-width="10" stroke="#00ff00" stroke-linecap="round" />
<path d="M-85.22958930743997,91.10830503730415 L-77.00283048346195,105.8752815111892" fill="none" stroke-width="10" stroke="#ff0000" stroke-linecap="round" />
<path d="M100.71106549407594,-217.02512448073406 L75.28515602333827,-245.51649742202608" fill="none" stroke-width="10" stroke="#00ff00" stroke-linecap="round" />
<path d="M445.692814576537,-90.91785057542633 L455.8040345324439,-86.39356822850739" fill="none" stroke-width="10" stroke="#ff0000" stroke-linecap="round" />
<path d="M434.690968483983,-146.18010600371755 L428.76484866975034,-156.08357554446073" fill="none" stroke-width="10" stroke="#ff0000" stroke-linecap="round" />
<path d="M311.5966381168129,-521.8114386091036 L319.5014951673366,-532.0288751128945" fill="none" stroke-width="10" stroke="#00ff00" stroke-linecap="round" />
<circle cx="349.82933662451524" cy="-589.6708017411762" r="7.639843006129276" fill="#00ff00" stroke="none" />
<circle cx="630.9441815853581" cy="-384.96199186869944" r="19.264731336241386" fill="#00ff00" stroke="none" />
<path d="M514.8546901095889,-425.87495301990043 L514.9434423134408,-436.58751477724843" fill="none" stroke-width="10" stroke="#00ff00" stroke-linecap="round" />
<path d="M499.0107894289242,-102.45359009407875 L507.0027479408682,-102.99714761777192" fill="none" stroke-width="10" stroke="#00ff00" stroke-linecap="round" />
<path d="M-29.707608816443557,-675.6099626348541 L-42.18870100680588,-674.1000840044653" fill="none" stroke-width="10" stroke="#00ff00" stroke-linecap="round" />
<path d="M21.026041633411747,-676.6363494811818 L15.96210285695325,-681.5826516260835" fill="none" stroke-width="10" stroke="#00ff00" stroke-linecap="round" />
<circle cx="-136.26159565162274" cy="-37.61561731408807" r="15.891320656270471" fill="#ff0000" stroke="none" />
<path d="M541.9111269664895,-647.4839735046429 L530.0917902235151,-636.9665004591616" fill="none" stroke-width="10" stroke="#00ff00" stroke-linecap="round" />
<circle cx="-138.49760047677051" cy="133.64421963577686" r="11.94200121952499" fill="#ff0000" stroke="none" />
<circle cx="364.4935250776639" cy="-355.2955948305892" r="20.317755608874315" fill="#ff0000" stroke="none" />
<path d="M-152.2200832835702,-121.49088977954123 L-166.60968786896743,-120.15634753098631" fill="none" stroke-width="10" stroke="#ff0000" stroke-linecap="round" />
<circle cx="-103.33062216053365" cy="-375.4211832558871" r="17.217675208398397" fill="#00ff00" stroke="none" />
<circle cx="127.98432847339109" cy="136.14083136620147" r="12.51807110898981" fill="#00ff00" stroke="none" />
<path d="M-68.76417205407436,-159.24458440044324 L-50.31775621610975,-165.77811387593277" fill="none" stroke-width="10" stroke="#00ff00" stroke-linecap="round" />
<circle cx="535.9921755909484" cy="-449.82528808522227" r="15.24685192214261" fill="#00ff00" stroke="none" />
<path d="M460.87047996799816,-118.73214843688623 L467.572726270677,-110.98740496119744" fill="none" stroke-width="10" stroke="#ff0000" stroke-linecap="round" />
<path d="M499.6050433981029,-362.11576595535564 L494.0254194580867,-360.4854096798862" fill="none" stroke-width="10" stroke="#00ff00" stroke-linecap="round" />
<circle cx="463.09574285806974" cy="-263.70041540409864" r="12.134569805106905" fill="#ff0000" stroke="none" />
<path d="M264.1100556760342,35.56411817883734 L277.07125297972084,45.769694868994684" fill="none" stroke-width="10" stroke="#ff0000" stroke-linecap="round" />
<path d="M508.2932140104053,-127.01659665154492 L495.82686176572844,-123.91276538267932" fill="none" stroke-width="10" stroke="#00ff00" stroke-linecap="round" />
<circle cx="-7.296128406112546" cy="82.76006107842919" r="16.48682515691833" fill="#00ff00" stroke="none" />
<path d="M377.7878196772666,-520.8522700453337 L392.40293965699567,-527.9241447458736" fill="none" stroke-width="10" stroke="#00ff00" stroke-linecap="round" />
<circle cx="433.8143341044264" cy="-334.1445204376766" r="13.536899489679431" fill="#00ff00" stroke="none" />
<path d="M450.2223308227604,109.94360302348443 L447.2579666234062,122.49064617649483" fill="none" stroke-width="10" stroke="#00ff00" stroke-linecap="round" />
<path d="M-254.09205640264298,-212.09693263869 L-266.2400158811232,-241.1266378692315" fill="none" stroke-width="10" stroke="#00ff00" stroke-linecap="round" />
<path d="M630.2897019477087,-619.8290992600629 L625.9494397015158,-599.8612579695234" fill="none" stroke-width="10" stroke="#00ff00" stroke-linecap="round" />
<path d="M357.7776034525415,-66.9843845811832 L367.97510905913987,-64.42038210901772" fill="none" stroke-width="10" stroke="#00ff00" stroke-linecap="round" />
<path d="M-201.65080293368263,59.17263495269202 L-197.19437235186967,56.45808729602182" fill="none" stroke-width="10" stroke="#00ff00" stroke-linecap="round" />
<path d="M490.4612376781608,-296.32856802956195 L500.22947984716006,-296.1274501068883" fill="none" stroke-width="10" stroke="#ff0000" stroke-linecap="round" />
<path d="M590.8970853460487,40.94981934696656 L590.5007039491363,52.97138467720682" fill="none" stroke-width="10" stroke="#ff0000" stroke-linecap="round" />
<path d="M164.1224450810326,98.0230538269437 L168.00629051431855,79.34339121602781" fill="none" stroke-width="10" stroke="#00ff00" stroke-linecap="round" />
<path d="M439.3445057279403,135.82562586511372 L429.59393995914127,142.97856883611698" fill="none" stroke-width="10" stroke="#00ff00" stroke-linecap="round" />
<circle cx="-912.3464417256915" cy="142.0588810452912" r="116.06602572091553" fill="#ff0000" stroke="none" />
<path d="M-162.37349732178572,158.10374350783047 L-171.69386383726706,159.2920395411845" fill="none" stroke-width="10" stroke="#ff0000" stroke-linecap="round" />
<circle cx="530.2483077631719" cy="-262.6143504025109" r="17.671041700813003" fill="#ff0000" stroke="none" />
<path d="M433.6295022182157,-85.97118761953644 L429.1644982248495,-89.09188521443188" fill="none" stroke-width="10" stroke="#ff0000" stroke-linecap="round" />
<path d="M-116.96276329582143,-767.5113237381998 L-118.6265378918229,-748.7140089623781" fill="none" stroke-width="10" stroke="#00ff00" stroke-linecap="round" />
<path d="M333.8785853140997,-663.6632692079688 L338.97696077746264,-651.8893001446964" fill="none" stroke-width="10" stroke="#00ff00" stroke-linecap="round" />
<path d="M495.6369298438963,8.239086404131374 L510.91172452273395,19.393793009224172" fill="none" stroke-width="10" stroke="#ff0000" stroke-linecap="round" />
<path d="M126.9138690447971,41.41416662788191 L142.07609431861476,55.9814064354193" fill="none" stroke-width="10" stroke="#ff0000" stroke-linecap="round" />
<path d="M382.3842705400738,-218.52696571796662 L394.4791644016909,-215.55536603469918" fill="none" stroke-width="10" stroke="#ff0000" stroke-linecap="round" />
<path d="M425.31961306371164,-550.8122844655331 L420.1570462759319,-566.5725572608573" fill="none" stroke-width="10" stroke="#ff0000" stroke-linecap="round" />
<path d="M402.41111645318574,-188.52411934892334 L409.34499882558515,-200.057366376605" fill="none" stroke-width="10" stroke="#ff0000" stroke-linecap="round" />
<circle cx="212.21175280474043" cy="51.572183120273515" r="13.459494524867463" fill="#00ff00" stroke="none" />
<path d="M-230.7574097380976,-455.22459101374807 L-210.34604147312024,-460.60475689685046" fill="none" stroke-width="10" stroke="#ff0000" stroke-linecap="round" />
<path d="M-25.891943517164812,196.10354598854408 L-42.767676244336,200.83266443071489" fill="none" stroke-width="10" stroke="#ff0000" stroke-linecap="round" />
<path d="M-189.10979340160443,1.4130757475180993 L-185.1813054585756,14.260684395656138" fill="none" stroke-width="10" stroke="#ff0000" stroke-linecap="round" />
<path d="M-58.01050831214186,-665.6279428883109 L-59.857573653319186,-675.4725556880594" fill="none" stroke-width="10" stroke="#00ff00" stroke-linecap="round" />
<path d="M424.230790169205,-168.6226144398266 L420.1623578363762,-179.68508651598782" fill="none" stroke-width="10" stroke="#ff0000" stroke-linecap="round" />
<circle cx="643.0465845565494" cy="-217.85113185485005" r="24.714026166410644" fill="#00ff00" stroke="none" />
<path d="M679.0519691106243,-679.8762055424388 L684.3393339397844,-686.6643858049138" fill="none" stroke-width="10" stroke="#ff0000" stroke-linecap="round" />
<path d="M112.3526489401849,115.53483913765247 L95.71518000010765,117.2168383053469" fill="none" stroke-width="10" stroke="#00ff00" stroke-linecap="round" />
<path d="M17.86269958877912,93.1288777350434 L27.076851717768516,96.83519987020865" fill="none" stroke-width="10" stroke="#ff0000" stroke-linecap="round" />
<path d="M740.0804394601911,-620.7406358566791 L732.2114237012901,-597.2304092098492" fill="none" stroke-width="10" stroke="#ff0000" stroke-linecap="round" />
<path d="M571.1779538617754,-686.8235758203193 L561.500621450379,-700.8303827455499" fill="none" stroke-width="10" stroke="#00ff00" stroke-linecap="round" />
<path d="M839.1837745308459,-339.0089433962291 L854.1028601029466,-360.0283437419669" fill="none" stroke-width="10" stroke="#00ff00" stroke-linecap="round" />
<path d="M18.36632807060886,-414.4177780272793 L-13.991093642465131,-407.4753024254593" fill="none" stroke-width="10" stroke="#ff0000" stroke-linecap="round" />
<path d="M420.83246520332006,-249.38475362763057 L417.328854908328,-258.2365476338133" fill="none" stroke-width="10" stroke="#ff0000" stroke-linecap="round" />
<path d="M514.0783323223901,-189.455294799572 L536.7979994094408,-191.9401962400392" fill="none" stroke-width="10" stroke="#ff0000" stroke-linecap="round" />
<path d="M467.7455606772871,-728.9648524446166 L449.6662022276968,-737.32744365913" fill="none" stroke-width="10" stroke="#ff0000" stroke-linecap="round" />
<path d="M220.81128195101087,182.20151700559964 L227.19762462572317,186.87629086605935" fill="none" stroke-width="10" stroke="#00ff00" stroke-linecap="round" />
<path d="M-4.550476570293536,-565.1772422280219 L-15.287126314088347,-577.4127610259756" fill="none" stroke-width="10" stroke="#ff0000" stroke-linecap="round" />
<path d="M87.69348383466864,91.93456301004353 L90.34237052688644,79.97047963235907" fill="none" stroke-width="10" stroke="#00ff00" stroke-linecap="round" />
<path d="M457.5162243874366,-65.20454179619048 L449.446240311186,-56.023050306093054" fill="none" stroke-width="10" stroke="#ff0000" stroke-linecap="round" />
<path d="M536.3524680228207,160.03935468680388 L548.0027587087365,157.5418886758386" fill="none" stroke-width="10" stroke="#00ff00" stroke-linecap="round" />
<path d="M325.31032099936533,-162.91156190639518 L334.30069556327396,-176.34527504560353" fill="none" stroke-width="10" stroke="#ff0000" stroke-linecap="round" />
<path d="M-21.34440812770214,-457.6752796488675 L-36.88750780718268,-468.60568883676365" fill="none" stroke-width="10" stroke="#00ff00" stroke-linecap="round" />
<circle cx="357.2984143827068" cy="-138.39912835072874" r="10.13421708896099" fill="#ff0000" stroke="none" />
<path d="M693.3192696564755,43.09448258331355 L693.2821930382139,25.905275611589403" fill="none" stroke-width="10" stroke="#00ff00" stroke-linecap="round" />
<path d="M601.148904352134,-648.7987216112487 L607.8549864977522,-658.248796092432" fill="none" stroke-width="10" stroke="#00ff00" stroke-linecap="round" />
<path d="M481.0226868949582,-306.0866893202393 L474.3298630713061,-313.0934586095158" fill="none" stroke-width="10" stroke="#00ff00" stroke-linecap="round" />
<path d="M-183.6498091238959,206.25175110979828 L-171.10622274672627,203.7024094630451" fill="none" stroke-width="10" stroke="#00ff00" stroke-linecap="round" />
<path d="M364.15583386718185,-23.71520552776102 L357.558738947105,-7.5154176069055225" fill="none" stroke-width="10" stroke="#ff0000" stroke-linecap="round" />
<path d="M53.375713857090275,-480.48981701903074 L27.40387589092897,-477.0219677733481" fill="none" stroke-width="10" stroke="#00ff00" stroke-linecap="round" />
<path d="M55.98671412560449,-648.1256730649646 L58.495115924922736,-661.5346070331499" fill="none" stroke-width="10" stroke="#00ff00" stroke-linecap="round" />
<path d="M-119.22879037112197,-118.98770333104636 L-110.97977138237816,-122.5218325299019" fill="none" stroke-width="10" stroke="#ff0000" stroke-linecap="round" />
<circle cx="73.4499199756766" cy="-510.47090600570556" r="16.664927101571735" fill="#00ff00" stroke="none" />
<path d="M3404.2935148049073,-207.30769589074572 L3343.8505400146996,-249.03690851898375" fill="none" stroke-width="10" stroke="#ff0000" stroke-linecap="round" />
<circle cx="471.3897831583939" cy="-95.16611555905789" r="7.334015532988466" fill="#00ff00" stroke="none" />
<path d="M138.34145935545703,-568.5871468881114 L121.2866878032918,-578.4801145554743" fill="none" stroke-width="10" stroke="#ff0000" stroke-linecap="round" />
<path d="M-77.04817914248277,-642.9673748178323 L-79.05906126069759,-623.0363951472052" fill="none" stroke-width="10" stroke="#ff0000" stroke-linecap="round" />
<path d="M483.8471560565501,45.24247326013849 L460.4714581705363,49.31124674247292" fill="none" stroke-width="10" stroke="#00ff00" stroke-linecap="round" />
<path d="M588.5129152214355,-449.2084832036971 L607.7423427596109,-447.1331804058079" fill="none" stroke-width="10" stroke="#ff0000" stroke-linecap="round" />
<circle cx="627.6285155638874" cy="68.85906433955643" r="7.754580502531913" fill="#00ff00" stroke="none" />
<circle cx="425.22563335490815" cy="-61.863436530530414" r="8.58365307979309" fill="#00ff00" stroke="none" />
<path d="M597.1734050117474,65.44761547596411 L607.1647835789842,67.20088099477276" fill="none" stroke-width="10" stroke="#00ff00" stroke-linecap="round" />
<path d="M-66.37993685685159,-85.10813187763621 L-76.26873487824764,-105.40215554758181" fill="none" stroke-width="10" stroke="#00ff00" stroke-linecap="round" />
<path d="M-183.20226944444414,-494.1497868587139 L-167.2205030188216,-485.8345405202951" fill="none" stroke-width="10" stroke="#ff0000" stroke-linecap="round" />
<circle cx="439.44032317760093" cy="-294.134757476102" r="14.027848537996496" fill="#ff0000" stroke="none" />
<circle cx="509.19630235785985" cy="-546.0450870146926" r="18.846850295469753" fill="#ff0000" stroke="none" />
<circle cx="487.36713850446955" cy="-444.2694915654961" r="6.824873169233616" fill="#00ff00" stroke="none" />
<circle cx="468.40390494984933" cy="-442.45227565028586" r="9.773537801960849" fill="#ff0000" stroke="none" />
<path d="M13.426513997461216,-561.1495249396205 L19.861925020177644,-549.9813123014401" fill="none" stroke-width="10" stroke="#00ff00" stroke-linecap="round" />
<path d="M412.932893729234,-514.0062907162647 L418.50072866729437,-500.95348990920843" fill="none" stroke-width="10" stroke="#00ff00" stroke-linecap="round" />
<path d="M407.9415374038212,-3.3568800681293665 L391.66571134803195,6.870756287556" fill="none" stroke-width="10" stroke="#00ff00" stroke-linecap="round" />
<path d="M137.53305024139198,0.23140430059951636 L157.64630326232233,-5.495980860406634" fill="none" stroke-width="10" stroke="#00ff00" stroke-linecap="round" />
<path d="M-95.28640481533672,-146.53402502710458 L-115.09284473811367,-152.2678705843897" fill="none" stroke-width="10" stroke="#ff0000" stroke-linecap="round" />
<path d="M399.6648549374348,-70.56824823943016 L403.5684075568164,-64.51028181255896" fill="none" stroke-width="10" stroke="#00ff00" stroke-linecap="round" />
<path d="M681.7412649335063,77.65689513514208 L681.084307946571,84.80671188299128" fill="none" stroke-width="10" stroke="#00ff00" stroke-linecap="round" />
<path d="M-109.60055787038937,-16.439579993152506 L-99.23095011733876,-1.2562532577419039" fill="none" stroke-width="10" stroke="#ff0000" stroke-linecap="round" />
<path d="M602.4695986968026,-22.82761011696363 L578.9762091606759,-17.354603576634645" fill="none" stroke-width="10" stroke="#ff0000" stroke-linecap="round" />
<path d="M698.8296825680598,-332.33871995674866 L690.1977484820117,-319.2729613893341" fill="none" stroke-width="10" stroke="#ff0000" stroke-linecap="round" />
<path d="M296.08052741999836,-102.16010630214666 L280.8549554449754,-111.97193964527843" fill="none" stroke-width="10" stroke="#00ff00" stroke-linecap="round" />
<circle cx="403.9070805891145" cy="-239.04483188806046" r="7.596088678050951" fill="#00ff00" stroke="none" />
<path d="M377.97819843798777,-561.5256513454528 L394.0719802269739,-563.3971212577084" fill="none" stroke-width="10" stroke="#00ff00" stroke-linecap="round" />
<path d="M646.315098938639,88.37413225213933 L635.853706095387,85.9140133680005" fill="none" stroke-width="10" stroke="#ff0000" stroke-linecap="round" />
<path d="M650.9005907882469,-257.31084609423436 L649.3619037509101,-275.01183785474814" fill="none" stroke-width="10" stroke="#ff0000" stroke-linecap="round" />
<path d="M-10.586679659257443,-288.9616459747802 L-26.778385225038676,-295.38966478626435" fill="none" stroke-width="10" stroke="#00ff00" stroke-linecap="round" />
<path d="M304.3032101446661,-48.61970384157375 L316.0871330788132,-48.423657349562596" fill="none" stroke-width="10" stroke="#00ff00" stroke-linecap="round" />
<path d="M696.3399493830082,-441.3891949212058 L700.6491711331903,-407.5407323296287" fill="none" stroke-width="10" stroke="#00ff00" stroke-linecap="round" />
<path d="M17.548567914343057,127.1687220234769 L29.327189554775995,121.37844516667992" fill="none" stroke-width="10" stroke="#00ff00" stroke-linecap="round" />
<circle cx="377.8316493639561" cy="-147.16259700592417" r="9.784462618245858" fill="#00ff00" stroke="none" />
<circle cx="-69.25847666034502" cy="-375.6437831351939" r="11.585651759046199" fill="#00ff00" stroke="none" />
<circle cx="365.96393036712743" cy="-221.0487570290507" r="8.68186301628035" fill="#00ff00" stroke="none" />
<circle cx="463.80576370404333" cy="-466.1139327346826" r="10.803228104491852" fill="#00ff00" stroke="none" />
<path d="M304.9937333005162,-140.10096692754274 L299.2696042239403,-149.03633614219393" fill="none" stroke-width="10" stroke="#00ff00" stroke-linecap="round" />
<path d="M357.2183107008429,-179.37347087910464 L361.88488589836845,-167.23555590855023" fill="none" stroke-width="10" stroke="#ff0000" stroke-linecap="round" />
<path d="M0.021026926663286413,-514.7277059481443 L9.504377692841508,-512.4115538350668" fill="none" stroke-width="10" stroke="#00ff00" stroke-linecap="round" />
<path d="M-79.43842528945997,-509.71502636752695 L-60.816288236341755,-497.0353140862834" fill="none" stroke-width="10" stroke="#ff0000" stroke-linecap="round" />
<path d="M307.8123417303614,4.119713124891062 L296.5570609473117,14.540441045699378" fill="none" stroke-width="10" stroke="#ff0000" stroke-linecap="round" />
<circle cx="-46.89811586604664" cy="-345.65717529690335" r="12.285532958721154" fill="#ff0000" stroke="none" />
<path d="M56.07079642181034,-376.09722847912883 L93.74372853698348,-386.20132599786325" fill="none" stroke-width="10" stroke="#00ff00" stroke-linecap="round" />
<path d="M-263.75435760034236,-507.5989480716525 L-266.4264541027907,-533.9306320735589" fill="none" stroke-width="10" stroke="#00ff00" stroke-linecap="round" />
<path d="M-18.72672071656936,-533.3495321958242 L-10.111583685450794,-526.874334360573" fill="none" stroke-width="10" stroke="#00ff00" stroke-linecap="round" />
<path d="M106.60570916314708,-431.0935752135652 L110.1234822831021,-452.551785989936" fill="none" stroke-width="10" stroke="#ff0000" stroke-linecap="round" />
<path d="M79.1465099317514,432.6927150725138 L72.55685942905188,392.28717323308325" fill="none" stroke-width="10" stroke="#00ff00" stroke-linecap="round" />
<path d="M277.5560802413029,-54.47300233981297 L264.29577249427734,-55.86487331252078" fill="none" stroke-width="10" stroke="#ff0000" stroke-linecap="round" />
<path d="M315.7630588251763,-345.952854964561 L316.03512420689816,-329.86488782453324" fill="none" stroke-width="10" stroke="#ff0000" stroke-linecap="round" />
<path d="M90.42141783161502,-1646.8374527548976 L67.09748827139809,-1626.433479019378" fill="none" stroke-width="10" stroke="#00ff00" stroke-linecap="round" />
</svg>