<?xml version="1.0" encoding="UTF-8" standalone="no"?>
<!-- Created with Inkscape (http://www.inkscape.org/) -->

<svg
   width="23.09934mm"
   height="29.888851mm"
   viewBox="0 0 23.09934 29.888851"
   version="1.1"
   id="svg242431"
   inkscape:version="1.2 (1:1.2+202206011327+fc4e4096c5)"
   sodipodi:docname="logo-about-the-world.svg"
   xmlns:inkscape="http://www.inkscape.org/namespaces/inkscape"
   xmlns:sodipodi="http://sodipodi.sourceforge.net/DTD/sodipodi-0.dtd"
   xmlns="http://www.w3.org/2000/svg"
   xmlns:svg="http://www.w3.org/2000/svg">
  <sodipodi:namedview
     id="namedview242433"
     pagecolor="#ffffff"
     bordercolor="#999999"
     borderopacity="1"
     inkscape:showpageshadow="0"
     inkscape:pageopacity="0"
     inkscape:pagecheckerboard="0"
     inkscape:deskcolor="#d1d1d1"
     inkscape:document-units="mm"
     showgrid="false"
     inkscape:zoom="2.1417558"
     inkscape:cx="134.0022"
     inkscape:cy="74.471609"
     inkscape:window-width="924"
     inkscape:window-height="1016"
     inkscape:window-x="996"
     inkscape:window-y="27"
     inkscape:window-maximized="0"
     inkscape:current-layer="layer1" />
  <defs
     id="defs242428" />
  <g
     inkscape:label="Layer 1"
     inkscape:groupmode="layer"
     id="layer1"
     transform="translate(-102.96978,-127.25194)">
    <g
       id="g237348"
       transform="translate(472.61671,-695.7179)">
      <path
         style="color:#000000;fill:#43bccd;fill-opacity:1;stroke:none;stroke-width:0.252092;stroke-linecap:round"
         d="m -353.87178,825.17039 c -2.26225,0.16047 -4.30736,1.4492 -5.51894,3.51402 -1.46354,2.49422 -1.39994,6.02914 1.05957,7.97682 -0.0448,-0.0355 0.38521,0.33711 0.86854,0.64254 0.48332,0.30543 1.1184,0.6514 1.95371,0.71295 a 1.2604578,1.2604578 0 0 0 1.34957,-1.16445 1.2604578,1.2604578 0 0 0 -1.16444,-1.34957 c -0.14752,-0.0109 -0.49616,-0.14329 -0.79222,-0.33038 -0.29606,-0.1871 -0.44078,-0.32144 -0.65042,-0.48745 -1.23505,-0.97803 -1.35799,-3.17769 -0.45051,-4.72425 1.13053,-1.92669 2.87926,-2.69969 4.99998,-2.12752 2.06728,0.55776 3.16594,2.25657 3.14819,4.50466 -0.0249,3.14352 -1.70178,4.26991 -3.2959,6.2309 -1.82568,2.24585 -2.43545,4.59234 -2.37173,6.9079 a 1.2604578,1.2604578 0 0 0 1.29492,1.2255 1.2604578,1.2604578 0 0 0 1.2255,-1.29443 c -0.0517,-1.87839 0.32325,-3.4228 1.80748,-5.24863 1.31037,-1.61194 3.82811,-3.69159 3.86064,-7.80105 v -5e-4 c 0.0251,-3.17767 -1.84091,-6.10249 -5.01229,-6.95813 -0.77947,-0.2103 -1.55757,-0.28243 -2.31165,-0.22895 z"
         id="path87529" />
      <circle
         style="fill:#a4574d;fill-opacity:1;stroke-width:0.318949;stroke-linecap:round;paint-order:fill markers stroke"
         id="circle87533"
         cx="473.06281"
         cy="-790.12152"
         transform="rotate(171.66719)"
         r="2.5209155" />
      <circle
         style="fill:#cee076;fill-opacity:1;stroke-width:0.318949;stroke-linecap:round;paint-order:fill markers stroke"
         id="circle87535"
         cx="470.25653"
         cy="-771.92987"
         transform="rotate(171.66719)"
         r="2.5209155" />
      <path
         style="color:#000000;fill:#cee076;fill-opacity:1;stroke:none;stroke-width:0.252092;stroke-linecap:round;stroke-opacity:1"
         d="m -362.32274,850.65814 c 2.26225,-0.16047 4.30736,-1.4492 5.51894,-3.51402 1.46354,-2.49422 1.39994,-6.02914 -1.05957,-7.97682 0.0448,0.0355 -0.38521,-0.33711 -0.86854,-0.64254 -0.48332,-0.30543 -1.1184,-0.6514 -1.95371,-0.71295 a 1.2604578,1.2604578 0 0 0 -1.34957,1.16445 1.2604578,1.2604578 0 0 0 1.16444,1.34957 c 0.14752,0.0109 0.49616,0.14329 0.79222,0.33038 0.29606,0.1871 0.44078,0.32144 0.65042,0.48745 1.23505,0.97803 1.35799,3.17769 0.45051,4.72425 -1.13053,1.92669 -2.87926,2.69969 -4.99998,2.12752 -2.06728,-0.55776 -3.16594,-2.25657 -3.14819,-4.50466 0.0249,-3.14352 1.70178,-4.26991 3.2959,-6.2309 1.82568,-2.24585 2.43545,-4.59234 2.37173,-6.9079 a 1.2604578,1.2604578 0 0 0 -1.29492,-1.2255 1.2604578,1.2604578 0 0 0 -1.2255,1.29443 c 0.0517,1.87839 -0.32325,3.4228 -1.80748,5.24863 -1.31037,1.61194 -3.82811,3.69159 -3.86064,7.80105 v 5e-4 c -0.0251,3.17767 1.84091,6.10249 5.01229,6.95813 0.77947,0.2103 1.55757,0.28243 2.31165,0.22895 z"
         id="path87537" />
      <circle
         style="fill:#a4574d;fill-opacity:1;stroke:none;stroke-width:0.318949;stroke-linecap:round;stroke-dasharray:none;stroke-opacity:1;paint-order:fill markers stroke"
         id="circle87541"
         cx="-478.43665"
         cy="764.22229"
         transform="rotate(-8.33281)"
         r="2.5209155" />
      <circle
         style="fill:#43bccd;fill-opacity:1;stroke:none;stroke-width:0.318949;stroke-linecap:round;stroke-dasharray:none;stroke-opacity:1;paint-order:fill markers stroke"
         id="circle87543"
         cx="-481.24289"
         cy="782.41394"
         transform="rotate(-8.33281)"
         r="2.5209155" />
    </g>
  </g>
</svg>
