<?xml version="1.0" encoding="UTF-8" standalone="no"?>
<!-- Created with Inkscape (http://www.inkscape.org/) -->

<svg
   width="23.099344mm"
   height="29.88888mm"
   viewBox="0 0 23.099344 29.88888"
   version="1.1"
   id="svg242431"
   inkscape:version="1.2 (1:1.2+202206011327+fc4e4096c5)"
   sodipodi:docname="logo-perso-easy.svg"
   xmlns:inkscape="http://www.inkscape.org/namespaces/inkscape"
   xmlns:sodipodi="http://sodipodi.sourceforge.net/DTD/sodipodi-0.dtd"
   xmlns="http://www.w3.org/2000/svg"
   xmlns:svg="http://www.w3.org/2000/svg">
  <sodipodi:namedview
     id="namedview242433"
     pagecolor="#ffffff"
     bordercolor="#999999"
     borderopacity="1"
     inkscape:showpageshadow="0"
     inkscape:pageopacity="0"
     inkscape:pagecheckerboard="0"
     inkscape:deskcolor="#d1d1d1"
     inkscape:document-units="mm"
     showgrid="false"
     inkscape:zoom="2.1417558"
     inkscape:cx="105.98781"
     inkscape:cy="79.607582"
     inkscape:window-width="924"
     inkscape:window-height="1016"
     inkscape:window-x="996"
     inkscape:window-y="27"
     inkscape:window-maximized="0"
     inkscape:current-layer="layer1" />
  <defs
     id="defs242428" />
  <g
     inkscape:label="Layer 1"
     inkscape:groupmode="layer"
     id="layer1"
     transform="translate(-110.50362,-125.88627)">
    <g
       id="g237370"
       style="display:inline"
       transform="translate(480.15055,-241.18979)">
      <g
         id="g38162"
         transform="matrix(0.25209156,0,0,0.25209156,-377.73991,375.67851)">
        <g
           id="g38148"
           style="fill:#0081a7;fill-opacity:1;stroke:#ede2b3"
           transform="translate(-347.50517,-458.2896)">
          <path
             style="color:#000000;fill:#0081a7;fill-opacity:1;stroke:none;stroke-linecap:round"
             d="m 442.18555,432.89453 c -8.97392,0.63655 -17.08646,5.74872 -21.89258,13.93945 -5.8056,9.89414 -5.55332,23.91648 4.20312,31.64258 -0.17775,-0.14076 1.52806,1.33725 3.44532,2.54883 1.91726,1.21158 4.43651,2.58396 7.75,2.82813 a 5,5 0 0 0 5.35351,-4.61915 5,5 0 0 0 -4.61914,-5.35351 c -0.58515,-0.0431 -1.96815,-0.56839 -3.14258,-1.31055 -1.17442,-0.74216 -1.7485,-1.27507 -2.58008,-1.93359 -4.89922,-3.87969 -5.3869,-12.60532 -1.7871,-18.74024 4.48462,-7.64282 11.42151,-10.70915 19.83398,-8.43945 8.20054,2.2125 12.55872,8.95137 12.48828,17.86914 -0.0987,12.46974 -6.75063,16.93792 -13.07422,24.7168 -7.24211,8.90888 -9.66096,18.21696 -9.4082,27.40234 a 5,5 0 0 0 5.13672,4.86133 5,5 0 0 0 4.86133,-5.13477 c -0.20504,-7.4512 1.28225,-13.5776 7.16992,-20.82031 5.198,-6.39426 15.18538,-14.64384 15.31445,-30.94531 v -0.002 c 0.0996,-12.60523 -7.30257,-24.20743 -19.88281,-27.60157 -3.09203,-0.83423 -6.17862,-1.12038 -9.16992,-0.9082 z"
             id="path38146" />
        </g>
        <circle
           style="fill:#fdfdfd;fill-opacity:1;stroke-width:1.26521;stroke-linecap:round;paint-order:fill markers stroke"
           id="circle38150"
           cx="-84.108704"
           cy="-87.552864"
           transform="rotate(171.66719)"
           r="10" />
        <circle
           style="fill:#fed9b7;fill-opacity:1;stroke-width:1.26521;stroke-linecap:round;paint-order:fill markers stroke"
           id="circle38152"
           cx="-95.240616"
           cy="-15.390025"
           transform="rotate(171.66719)"
           r="10" />
        <g
           id="g38156"
           style="fill:#f07167;fill-opacity:1;stroke:#f0c667"
           transform="rotate(180,251.6713,254.3023)">
          <path
             style="color:#000000;fill:#f07167;fill-opacity:1;stroke:none;stroke-linecap:round"
             d="m 442.18555,432.89453 c -8.97392,0.63655 -17.08646,5.74872 -21.89258,13.93945 -5.8056,9.89414 -5.55332,23.91648 4.20312,31.64258 -0.17775,-0.14076 1.52806,1.33725 3.44532,2.54883 1.91726,1.21158 4.43651,2.58396 7.75,2.82813 a 5,5 0 0 0 5.35351,-4.61915 5,5 0 0 0 -4.61914,-5.35351 c -0.58515,-0.0431 -1.96815,-0.56839 -3.14258,-1.31055 -1.17442,-0.74216 -1.7485,-1.27507 -2.58008,-1.93359 -4.89922,-3.87969 -5.3869,-12.60532 -1.7871,-18.74024 4.48462,-7.64282 11.42151,-10.70915 19.83398,-8.43945 8.20054,2.2125 12.55872,8.95137 12.48828,17.86914 -0.0987,12.46974 -6.75063,16.93792 -13.07422,24.7168 -7.24211,8.90888 -9.66096,18.21696 -9.4082,27.40234 a 5,5 0 0 0 5.13672,4.86133 5,5 0 0 0 4.86133,-5.13477 c -0.20504,-7.4512 1.28225,-13.5776 7.16992,-20.82031 5.198,-6.39426 15.18538,-14.64384 15.31445,-30.94531 v -0.002 c 0.0996,-12.60523 -7.30257,-24.20743 -19.88281,-27.60157 -3.09203,-0.83423 -6.17862,-1.12038 -9.16992,-0.9082 z"
             id="path38154" />
        </g>
        <circle
           style="fill:#fdfdfd;fill-opacity:1;stroke:none;stroke-width:1.26521;stroke-linecap:round;stroke-dasharray:none;stroke-opacity:1;paint-order:fill markers stroke"
           id="circle38158"
           cx="62.791626"
           cy="-15.18466"
           transform="rotate(-8.33281)"
           r="10" />
        <circle
           style="fill:#00afb9;fill-opacity:1;stroke:none;stroke-width:1.26521;stroke-linecap:round;stroke-dasharray:none;stroke-opacity:1;paint-order:fill markers stroke"
           id="circle38160"
           cx="51.65979"
           cy="56.97818"
           transform="rotate(-8.33281)"
           r="10" />
      </g>
    </g>
  </g>
</svg>
